ISO-10303-21;
HEADER;
/* Generated by software containing ST-Developer
 * from STEP Tools, Inc. (www.steptools.com) 
 */
/* OPTION: using custom renumber hook */

FILE_DESCRIPTION(
/* description */ (
'CAx-IF Rec.Pracs.---Representation and Presentation of Product Manufa
cturing Information (PMI)---4.0---2014-10-13',
'CAx-IF Rec.Pracs.---3D Tessellated Geometry---0.4---2014-09-14','2;1'),

/* implementation_level */ '2;1');

FILE_NAME(
/* name */ 'openarm_wuji_mount',
/* time_stamp */ '2026-08-31T22:00:04-07:00',
/* author */ (''),
/* organization */ (''),
/* preprocessor_version */ 'ST-DEVELOPER v20',
/* originating_system */ 'SIEMENS PLM Software NX2412.8300',
/* authorisation */ $);

FILE_SCHEMA (('AP242_MANAGED_MODEL_BASED_3D_ENGINEERING_MIM_LF { 1 0 10303 442 1 1 4 }'));
ENDSEC;

DATA;
#10=MECHANICAL_DESIGN_AND_DRAUGHTING_RELATIONSHIP('','',#26,#27);
#11=MECHANICAL_DESIGN_AND_DRAUGHTING_RELATIONSHIP('','',#28,#27);
#12=MECHANICAL_DESIGN_AND_DRAUGHTING_RELATIONSHIP('','',#29,#27);
#13=MECHANICAL_DESIGN_AND_DRAUGHTING_RELATIONSHIP('','',#30,#27);
#14=MECHANICAL_DESIGN_AND_DRAUGHTING_RELATIONSHIP('','',#31,#27);
#15=MECHANICAL_DESIGN_AND_DRAUGHTING_RELATIONSHIP('','',#32,#27);
#16=MECHANICAL_DESIGN_AND_DRAUGHTING_RELATIONSHIP('','',#33,#27);
#17=MECHANICAL_DESIGN_AND_DRAUGHTING_RELATIONSHIP('','',#34,#27);
#18=MODEL_GEOMETRIC_VIEW('Top','',#53,#26);
#19=MODEL_GEOMETRIC_VIEW('Front','',#54,#28);
#20=MODEL_GEOMETRIC_VIEW('Right','',#55,#29);
#21=MODEL_GEOMETRIC_VIEW('Back','',#56,#30);
#22=MODEL_GEOMETRIC_VIEW('Bottom','',#57,#31);
#23=MODEL_GEOMETRIC_VIEW('Left','',#58,#32);
#24=MODEL_GEOMETRIC_VIEW('Isometric','',#59,#33);
#25=MODEL_GEOMETRIC_VIEW('Trimetric','',#60,#34);
#26=DRAUGHTING_MODEL('Top',(#53,#44),#1877);
#27=DRAUGHTING_MODEL('',(#45),#1877);
#28=DRAUGHTING_MODEL('Front',(#54,#46),#1877);
#29=DRAUGHTING_MODEL('Right',(#55,#47),#1877);
#30=DRAUGHTING_MODEL('Back',(#56,#48),#1877);
#31=DRAUGHTING_MODEL('Bottom',(#57,#49),#1877);
#32=DRAUGHTING_MODEL('Left',(#58,#50),#1877);
#33=DRAUGHTING_MODEL('Isometric',(#59,#51),#1877);
#34=DRAUGHTING_MODEL('Trimetric',(#60,#52),#1877);
#35=REPRESENTATION_MAP(#1088,#78);
#36=REPRESENTATION_MAP(#1088,#78);
#37=REPRESENTATION_MAP(#1088,#78);
#38=REPRESENTATION_MAP(#1088,#78);
#39=REPRESENTATION_MAP(#1088,#78);
#40=REPRESENTATION_MAP(#1088,#78);
#41=REPRESENTATION_MAP(#1088,#78);
#42=REPRESENTATION_MAP(#1088,#78);
#43=REPRESENTATION_MAP(#1088,#78);
#44=MAPPED_ITEM('',#35,#1088);
#45=MAPPED_ITEM('',#36,#1088);
#46=MAPPED_ITEM('',#37,#1088);
#47=MAPPED_ITEM('',#38,#1088);
#48=MAPPED_ITEM('',#39,#1088);
#49=MAPPED_ITEM('',#40,#1088);
#50=MAPPED_ITEM('',#41,#1088);
#51=MAPPED_ITEM('',#42,#1088);
#52=MAPPED_ITEM('',#43,#1088);
#53=CAMERA_MODEL_D3('Top',#1207,#61);
#54=CAMERA_MODEL_D3('Front',#1209,#62);
#55=CAMERA_MODEL_D3('Right',#1211,#63);
#56=CAMERA_MODEL_D3('Back',#1213,#64);
#57=CAMERA_MODEL_D3('Bottom',#1215,#65);
#58=CAMERA_MODEL_D3('Left',#1217,#66);
#59=CAMERA_MODEL_D3('Isometric',#1219,#67);
#60=CAMERA_MODEL_D3('Trimetric',#1221,#68);
#61=VIEW_VOLUME(.PARALLEL.,#1853,102.835954666138,0.,.F.,0.,.F.,.F.,#69);
#62=VIEW_VOLUME(.PARALLEL.,#1856,100.442901611328,0.,.F.,0.,.F.,.F.,#70);
#63=VIEW_VOLUME(.PARALLEL.,#1859,100.442905426025,0.,.F.,0.,.F.,.F.,#71);
#64=VIEW_VOLUME(.PARALLEL.,#1862,100.442901611328,0.,.F.,0.,.F.,.F.,#72);
#65=VIEW_VOLUME(.PARALLEL.,#1865,102.835952758789,0.,.F.,0.,.F.,.F.,#73);
#66=VIEW_VOLUME(.PARALLEL.,#1868,100.442901611328,0.,.F.,0.,.F.,.F.,#74);
#67=VIEW_VOLUME(.PARALLEL.,#1871,155.49004589984,0.,.F.,0.,.F.,.F.,#75);
#68=VIEW_VOLUME(.PARALLEL.,#1874,139.929391559922,0.,.F.,0.,.F.,.F.,#76);
#69=PLANAR_BOX('',51.279766289962,51.279766289962,#1208);
#70=PLANAR_BOX('',50.0864560146938,50.0864560146938,#1210);
#71=PLANAR_BOX('',50.0864579169155,50.0864579169155,#1212);
#72=PLANAR_BOX('',50.0864560146938,50.0864560146938,#1214);
#73=PLANAR_BOX('',51.2797653388511,51.2797653388511,#1216);
#74=PLANAR_BOX('',50.0864560146938,50.0864560146938,#1218);
#75=PLANAR_BOX('',77.5360450539467,77.5360450539467,#1220);
#76=PLANAR_BOX('',69.7766313307942,69.7766313307942,#1222);
#77=SHAPE_REPRESENTATION_RELATIONSHIP('','',#1087,#78);
#78=ADVANCED_BREP_SHAPE_REPRESENTATION('',(#1085),#1877);
#79=CONICAL_SURFACE('',#1197,3.025,0.785398163397447);
#80=CONICAL_SURFACE('',#1198,3.525,0.785398163397448);
#81=CONICAL_SURFACE('',#1199,3.025,0.785398163397449);
#82=CONICAL_SURFACE('',#1200,3.525,0.785398163397454);
#83=CONICAL_SURFACE('',#1201,3.025,0.785398163397449);
#84=CONICAL_SURFACE('',#1202,3.525,0.785398163397454);
#85=CONICAL_SURFACE('',#1203,3.525,0.785398163397448);
#86=CONICAL_SURFACE('',#1204,3.025,0.785398163397447);
#87=B_SPLINE_CURVE_WITH_KNOTS('',3,(#1833,#1834,#1835,#1836),
 .UNSPECIFIED.,.F.,.F.,(4,4),(0.,9.340034681845E-6),.UNSPECIFIED.);
#88=B_SPLINE_CURVE_WITH_KNOTS('',3,(#1837,#1838,#1839,#1840),
 .UNSPECIFIED.,.F.,.F.,(4,4),(0.,9.3400346818824E-6),.UNSPECIFIED.);
#89=PLANE('',#1095);
#90=PLANE('',#1098);
#91=PLANE('',#1101);
#92=PLANE('',#1104);
#93=PLANE('',#1107);
#94=PLANE('',#1112);
#95=PLANE('',#1113);
#96=PLANE('',#1116);
#97=PLANE('',#1127);
#98=PLANE('',#1128);
#99=PLANE('',#1129);
#100=PLANE('',#1131);
#101=PLANE('',#1132);
#102=PLANE('',#1134);
#103=PLANE('',#1135);
#104=PLANE('',#1136);
#105=PLANE('',#1151);
#106=PLANE('',#1152);
#107=PLANE('',#1153);
#108=PLANE('',#1154);
#109=PLANE('',#1155);
#110=PLANE('',#1156);
#111=PLANE('',#1157);
#112=PLANE('',#1158);
#113=PLANE('',#1171);
#114=PLANE('',#1172);
#115=PLANE('',#1196);
#116=LINE('',#1567,#185);
#117=LINE('',#1571,#186);
#118=LINE('',#1576,#187);
#119=LINE('',#1580,#188);
#120=LINE('',#1602,#189);
#121=LINE('',#1605,#190);
#122=LINE('',#1607,#191);
#123=LINE('',#1615,#192);
#124=LINE('',#1617,#193);
#125=LINE('',#1619,#194);
#126=LINE('',#1621,#195);
#127=LINE('',#1625,#196);
#128=LINE('',#1627,#197);
#129=LINE('',#1642,#198);
#130=LINE('',#1644,#199);
#131=LINE('',#1646,#200);
#132=LINE('',#1648,#201);
#133=LINE('',#1650,#202);
#134=LINE('',#1653,#203);
#135=LINE('',#1657,#204);
#136=LINE('',#1658,#205);
#137=LINE('',#1660,#206);
#138=LINE('',#1662,#207);
#139=LINE('',#1664,#208);
#140=LINE('',#1666,#209);
#141=LINE('',#1670,#210);
#142=LINE('',#1672,#211);
#143=LINE('',#1674,#212);
#144=LINE('',#1676,#213);
#145=LINE('',#1678,#214);
#146=LINE('',#1679,#215);
#147=LINE('',#1693,#216);
#148=LINE('',#1697,#217);
#149=LINE('',#1701,#218);
#150=LINE('',#1705,#219);
#151=LINE('',#1706,#220);
#152=LINE('',#1711,#221);
#153=LINE('',#1715,#222);
#154=LINE('',#1719,#223);
#155=LINE('',#1723,#224);
#156=LINE('',#1727,#225);
#157=LINE('',#1731,#226);
#158=LINE('',#1733,#227);
#159=LINE('',#1735,#228);
#160=LINE('',#1737,#229);
#161=LINE('',#1740,#230);
#162=LINE('',#1741,#231);
#163=LINE('',#1743,#232);
#164=LINE('',#1745,#233);
#165=LINE('',#1747,#234);
#166=LINE('',#1749,#235);
#167=LINE('',#1751,#236);
#168=LINE('',#1753,#237);
#169=LINE('',#1755,#238);
#170=LINE('',#1758,#239);
#171=LINE('',#1759,#240);
#172=LINE('',#1761,#241);
#173=LINE('',#1763,#242);
#174=LINE('',#1765,#243);
#175=LINE('',#1767,#244);
#176=LINE('',#1770,#245);
#177=LINE('',#1771,#246);
#178=LINE('',#1773,#247);
#179=LINE('',#1775,#248);
#180=LINE('',#1777,#249);
#181=LINE('',#1799,#250);
#182=LINE('',#1802,#251);
#183=LINE('',#1803,#252);
#184=LINE('',#1817,#253);
#185=VECTOR('',#1229,1000.);
#186=VECTOR('',#1232,1000.);
#187=VECTOR('',#1237,1000.);
#188=VECTOR('',#1240,1000.);
#189=VECTOR('',#1267,1000.);
#190=VECTOR('',#1268,1000.);
#191=VECTOR('',#1271,1000.);
#192=VECTOR('',#1280,1000.);
#193=VECTOR('',#1281,1000.);
#194=VECTOR('',#1284,1000.);
#195=VECTOR('',#1285,1000.);
#196=VECTOR('',#1292,1000.);
#197=VECTOR('',#1293,1000.);
#198=VECTOR('',#1316,1000.);
#199=VECTOR('',#1319,1000.);
#200=VECTOR('',#1320,1000.);
#201=VECTOR('',#1321,1000.);
#202=VECTOR('',#1324,1000.);
#203=VECTOR('',#1325,1000.);
#204=VECTOR('',#1328,1000.);
#205=VECTOR('',#1329,1000.);
#206=VECTOR('',#1330,1000.);
#207=VECTOR('',#1331,1000.);
#208=VECTOR('',#1334,1000.);
#209=VECTOR('',#1335,1000.);
#210=VECTOR('',#1340,1000.);
#211=VECTOR('',#1341,1000.);
#212=VECTOR('',#1342,1000.);
#213=VECTOR('',#1343,1000.);
#214=VECTOR('',#1346,1000.);
#215=VECTOR('',#1347,1000.);
#216=VECTOR('',#1362,1000.);
#217=VECTOR('',#1365,1000.);
#218=VECTOR('',#1368,1000.);
#219=VECTOR('',#1371,1000.);
#220=VECTOR('',#1372,1000.);
#221=VECTOR('',#1375,1000.);
#222=VECTOR('',#1378,1000.);
#223=VECTOR('',#1381,1000.);
#224=VECTOR('',#1384,1000.);
#225=VECTOR('',#1387,1000.);
#226=VECTOR('',#1392,1000.);
#227=VECTOR('',#1393,1000.);
#228=VECTOR('',#1394,1000.);
#229=VECTOR('',#1397,1000.);
#230=VECTOR('',#1398,1000.);
#231=VECTOR('',#1399,1000.);
#232=VECTOR('',#1402,1000.);
#233=VECTOR('',#1403,1000.);
#234=VECTOR('',#1404,1000.);
#235=VECTOR('',#1407,1000.);
#236=VECTOR('',#1408,1000.);
#237=VECTOR('',#1409,1000.);
#238=VECTOR('',#1412,1000.);
#239=VECTOR('',#1413,1000.);
#240=VECTOR('',#1414,1000.);
#241=VECTOR('',#1417,1000.);
#242=VECTOR('',#1418,1000.);
#243=VECTOR('',#1419,1000.);
#244=VECTOR('',#1422,1000.);
#245=VECTOR('',#1423,1000.);
#246=VECTOR('',#1424,1000.);
#247=VECTOR('',#1427,1000.);
#248=VECTOR('',#1428,1000.);
#249=VECTOR('',#1429,1000.);
#250=VECTOR('',#1456,1000.);
#251=VECTOR('',#1457,1000.);
#252=VECTOR('',#1458,1000.);
#253=VECTOR('',#1477,1000.);
#254=ORIENTED_EDGE('',*,*,#512,.F.);
#255=ORIENTED_EDGE('',*,*,#513,.F.);
#256=ORIENTED_EDGE('',*,*,#514,.F.);
#257=ORIENTED_EDGE('',*,*,#515,.F.);
#258=ORIENTED_EDGE('',*,*,#516,.F.);
#259=ORIENTED_EDGE('',*,*,#517,.F.);
#260=ORIENTED_EDGE('',*,*,#518,.F.);
#261=ORIENTED_EDGE('',*,*,#519,.F.);
#262=ORIENTED_EDGE('',*,*,#520,.T.);
#263=ORIENTED_EDGE('',*,*,#521,.T.);
#264=ORIENTED_EDGE('',*,*,#522,.T.);
#265=ORIENTED_EDGE('',*,*,#523,.T.);
#266=ORIENTED_EDGE('',*,*,#524,.T.);
#267=ORIENTED_EDGE('',*,*,#525,.T.);
#268=ORIENTED_EDGE('',*,*,#526,.T.);
#269=ORIENTED_EDGE('',*,*,#527,.T.);
#270=ORIENTED_EDGE('',*,*,#528,.F.);
#271=ORIENTED_EDGE('',*,*,#529,.T.);
#272=ORIENTED_EDGE('',*,*,#516,.T.);
#273=ORIENTED_EDGE('',*,*,#530,.T.);
#274=ORIENTED_EDGE('',*,*,#512,.T.);
#275=ORIENTED_EDGE('',*,*,#531,.T.);
#276=ORIENTED_EDGE('',*,*,#532,.F.);
#277=ORIENTED_EDGE('',*,*,#533,.F.);
#278=ORIENTED_EDGE('',*,*,#534,.F.);
#279=ORIENTED_EDGE('',*,*,#529,.F.);
#280=ORIENTED_EDGE('',*,*,#535,.T.);
#281=ORIENTED_EDGE('',*,*,#536,.T.);
#282=ORIENTED_EDGE('',*,*,#517,.T.);
#283=ORIENTED_EDGE('',*,*,#537,.T.);
#284=ORIENTED_EDGE('',*,*,#538,.T.);
#285=ORIENTED_EDGE('',*,*,#531,.F.);
#286=ORIENTED_EDGE('',*,*,#515,.T.);
#287=ORIENTED_EDGE('',*,*,#530,.F.);
#288=ORIENTED_EDGE('',*,*,#519,.T.);
#289=ORIENTED_EDGE('',*,*,#539,.T.);
#290=ORIENTED_EDGE('',*,*,#513,.T.);
#291=ORIENTED_EDGE('',*,*,#536,.F.);
#292=ORIENTED_EDGE('',*,*,#540,.T.);
#293=ORIENTED_EDGE('',*,*,#541,.T.);
#294=ORIENTED_EDGE('',*,*,#537,.F.);
#295=ORIENTED_EDGE('',*,*,#514,.T.);
#296=ORIENTED_EDGE('',*,*,#539,.F.);
#297=ORIENTED_EDGE('',*,*,#518,.T.);
#298=ORIENTED_EDGE('',*,*,#542,.T.);
#299=ORIENTED_EDGE('',*,*,#543,.T.);
#300=ORIENTED_EDGE('',*,*,#544,.F.);
#301=ORIENTED_EDGE('',*,*,#522,.F.);
#302=ORIENTED_EDGE('',*,*,#520,.F.);
#303=ORIENTED_EDGE('',*,*,#524,.F.);
#304=ORIENTED_EDGE('',*,*,#542,.F.);
#305=ORIENTED_EDGE('',*,*,#526,.F.);
#306=ORIENTED_EDGE('',*,*,#543,.F.);
#307=ORIENTED_EDGE('',*,*,#532,.T.);
#308=ORIENTED_EDGE('',*,*,#527,.F.);
#309=ORIENTED_EDGE('',*,*,#534,.T.);
#310=ORIENTED_EDGE('',*,*,#525,.F.);
#311=ORIENTED_EDGE('',*,*,#533,.T.);
#312=ORIENTED_EDGE('',*,*,#523,.F.);
#313=ORIENTED_EDGE('',*,*,#544,.T.);
#314=ORIENTED_EDGE('',*,*,#521,.F.);
#315=ORIENTED_EDGE('',*,*,#541,.F.);
#316=ORIENTED_EDGE('',*,*,#545,.T.);
#317=ORIENTED_EDGE('',*,*,#538,.F.);
#318=ORIENTED_EDGE('',*,*,#540,.F.);
#319=ORIENTED_EDGE('',*,*,#535,.F.);
#320=ORIENTED_EDGE('',*,*,#546,.T.);
#321=ORIENTED_EDGE('',*,*,#547,.T.);
#322=ORIENTED_EDGE('',*,*,#548,.T.);
#323=ORIENTED_EDGE('',*,*,#549,.T.);
#324=ORIENTED_EDGE('',*,*,#550,.T.);
#325=ORIENTED_EDGE('',*,*,#551,.T.);
#326=ORIENTED_EDGE('',*,*,#552,.F.);
#327=ORIENTED_EDGE('',*,*,#546,.F.);
#328=ORIENTED_EDGE('',*,*,#553,.F.);
#329=ORIENTED_EDGE('',*,*,#554,.T.);
#330=ORIENTED_EDGE('',*,*,#555,.T.);
#331=ORIENTED_EDGE('',*,*,#552,.T.);
#332=ORIENTED_EDGE('',*,*,#556,.T.);
#333=ORIENTED_EDGE('',*,*,#557,.F.);
#334=ORIENTED_EDGE('',*,*,#547,.F.);
#335=ORIENTED_EDGE('',*,*,#558,.T.);
#336=ORIENTED_EDGE('',*,*,#559,.T.);
#337=ORIENTED_EDGE('',*,*,#560,.T.);
#338=ORIENTED_EDGE('',*,*,#561,.T.);
#339=ORIENTED_EDGE('',*,*,#562,.F.);
#340=ORIENTED_EDGE('',*,*,#545,.F.);
#341=ORIENTED_EDGE('',*,*,#548,.F.);
#342=ORIENTED_EDGE('',*,*,#557,.T.);
#343=ORIENTED_EDGE('',*,*,#562,.T.);
#344=ORIENTED_EDGE('',*,*,#563,.T.);
#345=ORIENTED_EDGE('',*,*,#554,.F.);
#346=ORIENTED_EDGE('',*,*,#564,.F.);
#347=ORIENTED_EDGE('',*,*,#553,.T.);
#348=ORIENTED_EDGE('',*,*,#528,.T.);
#349=ORIENTED_EDGE('',*,*,#564,.T.);
#350=ORIENTED_EDGE('',*,*,#565,.T.);
#351=ORIENTED_EDGE('',*,*,#566,.T.);
#352=ORIENTED_EDGE('',*,*,#567,.T.);
#353=ORIENTED_EDGE('',*,*,#568,.T.);
#354=ORIENTED_EDGE('',*,*,#569,.T.);
#355=ORIENTED_EDGE('',*,*,#570,.F.);
#356=ORIENTED_EDGE('',*,*,#571,.T.);
#357=ORIENTED_EDGE('',*,*,#572,.F.);
#358=ORIENTED_EDGE('',*,*,#573,.T.);
#359=ORIENTED_EDGE('',*,*,#574,.F.);
#360=ORIENTED_EDGE('',*,*,#575,.T.);
#361=ORIENTED_EDGE('',*,*,#576,.F.);
#362=ORIENTED_EDGE('',*,*,#577,.T.);
#363=ORIENTED_EDGE('',*,*,#578,.T.);
#364=ORIENTED_EDGE('',*,*,#579,.T.);
#365=ORIENTED_EDGE('',*,*,#580,.T.);
#366=ORIENTED_EDGE('',*,*,#581,.T.);
#367=ORIENTED_EDGE('',*,*,#582,.T.);
#368=ORIENTED_EDGE('',*,*,#583,.T.);
#369=ORIENTED_EDGE('',*,*,#584,.T.);
#370=ORIENTED_EDGE('',*,*,#585,.T.);
#371=ORIENTED_EDGE('',*,*,#586,.T.);
#372=ORIENTED_EDGE('',*,*,#587,.T.);
#373=ORIENTED_EDGE('',*,*,#588,.T.);
#374=ORIENTED_EDGE('',*,*,#581,.F.);
#375=ORIENTED_EDGE('',*,*,#589,.T.);
#376=ORIENTED_EDGE('',*,*,#590,.T.);
#377=ORIENTED_EDGE('',*,*,#591,.T.);
#378=ORIENTED_EDGE('',*,*,#592,.T.);
#379=ORIENTED_EDGE('',*,*,#593,.T.);
#380=ORIENTED_EDGE('',*,*,#577,.F.);
#381=ORIENTED_EDGE('',*,*,#594,.T.);
#382=ORIENTED_EDGE('',*,*,#576,.T.);
#383=ORIENTED_EDGE('',*,*,#595,.T.);
#384=ORIENTED_EDGE('',*,*,#596,.F.);
#385=ORIENTED_EDGE('',*,*,#597,.T.);
#386=ORIENTED_EDGE('',*,*,#598,.T.);
#387=ORIENTED_EDGE('',*,*,#599,.F.);
#388=ORIENTED_EDGE('',*,*,#600,.T.);
#389=ORIENTED_EDGE('',*,*,#570,.T.);
#390=ORIENTED_EDGE('',*,*,#601,.F.);
#391=ORIENTED_EDGE('',*,*,#602,.T.);
#392=ORIENTED_EDGE('',*,*,#572,.T.);
#393=ORIENTED_EDGE('',*,*,#603,.T.);
#394=ORIENTED_EDGE('',*,*,#583,.F.);
#395=ORIENTED_EDGE('',*,*,#604,.T.);
#396=ORIENTED_EDGE('',*,*,#605,.T.);
#397=ORIENTED_EDGE('',*,*,#606,.T.);
#398=ORIENTED_EDGE('',*,*,#607,.T.);
#399=ORIENTED_EDGE('',*,*,#608,.T.);
#400=ORIENTED_EDGE('',*,*,#585,.F.);
#401=ORIENTED_EDGE('',*,*,#609,.T.);
#402=ORIENTED_EDGE('',*,*,#587,.F.);
#403=ORIENTED_EDGE('',*,*,#610,.T.);
#404=ORIENTED_EDGE('',*,*,#611,.T.);
#405=ORIENTED_EDGE('',*,*,#612,.T.);
#406=ORIENTED_EDGE('',*,*,#613,.T.);
#407=ORIENTED_EDGE('',*,*,#614,.T.);
#408=ORIENTED_EDGE('',*,*,#615,.T.);
#409=ORIENTED_EDGE('',*,*,#616,.T.);
#410=ORIENTED_EDGE('',*,*,#617,.T.);
#411=ORIENTED_EDGE('',*,*,#618,.T.);
#412=ORIENTED_EDGE('',*,*,#619,.T.);
#413=ORIENTED_EDGE('',*,*,#620,.T.);
#414=ORIENTED_EDGE('',*,*,#621,.F.);
#415=ORIENTED_EDGE('',*,*,#622,.T.);
#416=ORIENTED_EDGE('',*,*,#574,.T.);
#417=ORIENTED_EDGE('',*,*,#623,.T.);
#418=ORIENTED_EDGE('',*,*,#624,.T.);
#419=ORIENTED_EDGE('',*,*,#625,.T.);
#420=ORIENTED_EDGE('',*,*,#626,.T.);
#421=ORIENTED_EDGE('',*,*,#627,.T.);
#422=ORIENTED_EDGE('',*,*,#599,.T.);
#423=ORIENTED_EDGE('',*,*,#628,.T.);
#424=ORIENTED_EDGE('',*,*,#596,.T.);
#425=ORIENTED_EDGE('',*,*,#629,.T.);
#426=ORIENTED_EDGE('',*,*,#621,.T.);
#427=ORIENTED_EDGE('',*,*,#630,.T.);
#428=ORIENTED_EDGE('',*,*,#601,.T.);
#429=ORIENTED_EDGE('',*,*,#631,.T.);
#430=ORIENTED_EDGE('',*,*,#549,.F.);
#431=ORIENTED_EDGE('',*,*,#632,.T.);
#432=ORIENTED_EDGE('',*,*,#560,.F.);
#433=ORIENTED_EDGE('',*,*,#633,.T.);
#434=ORIENTED_EDGE('',*,*,#592,.F.);
#435=ORIENTED_EDGE('',*,*,#634,.T.);
#436=ORIENTED_EDGE('',*,*,#611,.F.);
#437=ORIENTED_EDGE('',*,*,#635,.T.);
#438=ORIENTED_EDGE('',*,*,#607,.F.);
#439=ORIENTED_EDGE('',*,*,#636,.T.);
#440=ORIENTED_EDGE('',*,*,#605,.F.);
#441=ORIENTED_EDGE('',*,*,#637,.T.);
#442=ORIENTED_EDGE('',*,*,#590,.F.);
#443=ORIENTED_EDGE('',*,*,#638,.T.);
#444=ORIENTED_EDGE('',*,*,#582,.F.);
#445=ORIENTED_EDGE('',*,*,#591,.F.);
#446=ORIENTED_EDGE('',*,*,#637,.F.);
#447=ORIENTED_EDGE('',*,*,#604,.F.);
#448=ORIENTED_EDGE('',*,*,#586,.F.);
#449=ORIENTED_EDGE('',*,*,#608,.F.);
#450=ORIENTED_EDGE('',*,*,#635,.F.);
#451=ORIENTED_EDGE('',*,*,#610,.F.);
#452=ORIENTED_EDGE('',*,*,#584,.F.);
#453=ORIENTED_EDGE('',*,*,#606,.F.);
#454=ORIENTED_EDGE('',*,*,#636,.F.);
#455=ORIENTED_EDGE('',*,*,#609,.F.);
#456=ORIENTED_EDGE('',*,*,#575,.F.);
#457=ORIENTED_EDGE('',*,*,#622,.F.);
#458=ORIENTED_EDGE('',*,*,#629,.F.);
#459=ORIENTED_EDGE('',*,*,#595,.F.);
#460=ORIENTED_EDGE('',*,*,#573,.F.);
#461=ORIENTED_EDGE('',*,*,#602,.F.);
#462=ORIENTED_EDGE('',*,*,#630,.F.);
#463=ORIENTED_EDGE('',*,*,#623,.F.);
#464=ORIENTED_EDGE('',*,*,#571,.F.);
#465=ORIENTED_EDGE('',*,*,#600,.F.);
#466=ORIENTED_EDGE('',*,*,#631,.F.);
#467=ORIENTED_EDGE('',*,*,#603,.F.);
#468=ORIENTED_EDGE('',*,*,#588,.F.);
#469=ORIENTED_EDGE('',*,*,#612,.F.);
#470=ORIENTED_EDGE('',*,*,#634,.F.);
#471=ORIENTED_EDGE('',*,*,#594,.F.);
#472=ORIENTED_EDGE('',*,*,#569,.F.);
#473=ORIENTED_EDGE('',*,*,#597,.F.);
#474=ORIENTED_EDGE('',*,*,#628,.F.);
#475=ORIENTED_EDGE('',*,*,#598,.F.);
#476=ORIENTED_EDGE('',*,*,#551,.F.);
#477=ORIENTED_EDGE('',*,*,#639,.T.);
#478=ORIENTED_EDGE('',*,*,#579,.F.);
#479=ORIENTED_EDGE('',*,*,#640,.T.);
#480=ORIENTED_EDGE('',*,*,#558,.F.);
#481=ORIENTED_EDGE('',*,*,#556,.F.);
#482=ORIENTED_EDGE('',*,*,#561,.F.);
#483=ORIENTED_EDGE('',*,*,#632,.F.);
#484=ORIENTED_EDGE('',*,*,#555,.F.);
#485=ORIENTED_EDGE('',*,*,#563,.F.);
#486=ORIENTED_EDGE('',*,*,#565,.F.);
#487=ORIENTED_EDGE('',*,*,#619,.F.);
#488=ORIENTED_EDGE('',*,*,#620,.F.);
#489=ORIENTED_EDGE('',*,*,#624,.F.);
#490=ORIENTED_EDGE('',*,*,#566,.F.);
#491=ORIENTED_EDGE('',*,*,#617,.F.);
#492=ORIENTED_EDGE('',*,*,#618,.F.);
#493=ORIENTED_EDGE('',*,*,#625,.F.);
#494=ORIENTED_EDGE('',*,*,#567,.F.);
#495=ORIENTED_EDGE('',*,*,#615,.F.);
#496=ORIENTED_EDGE('',*,*,#616,.F.);
#497=ORIENTED_EDGE('',*,*,#626,.F.);
#498=ORIENTED_EDGE('',*,*,#613,.F.);
#499=ORIENTED_EDGE('',*,*,#627,.F.);
#500=ORIENTED_EDGE('',*,*,#568,.F.);
#501=ORIENTED_EDGE('',*,*,#614,.F.);
#502=ORIENTED_EDGE('',*,*,#638,.F.);
#503=ORIENTED_EDGE('',*,*,#589,.F.);
#504=ORIENTED_EDGE('',*,*,#580,.F.);
#505=ORIENTED_EDGE('',*,*,#639,.F.);
#506=ORIENTED_EDGE('',*,*,#550,.F.);
#507=ORIENTED_EDGE('',*,*,#578,.F.);
#508=ORIENTED_EDGE('',*,*,#593,.F.);
#509=ORIENTED_EDGE('',*,*,#633,.F.);
#510=ORIENTED_EDGE('',*,*,#559,.F.);
#511=ORIENTED_EDGE('',*,*,#640,.F.);
#512=EDGE_CURVE('NONE',#641,#642,#735,.T.);
#513=EDGE_CURVE('NONE',#643,#641,#116,.T.);
#514=EDGE_CURVE('NONE',#644,#643,#736,.T.);
#515=EDGE_CURVE('NONE',#642,#644,#117,.T.);
#516=EDGE_CURVE('NONE',#645,#646,#737,.T.);
#517=EDGE_CURVE('NONE',#647,#645,#118,.T.);
#518=EDGE_CURVE('NONE',#648,#647,#738,.T.);
#519=EDGE_CURVE('NONE',#646,#648,#119,.T.);
#520=EDGE_CURVE('NONE',#649,#649,#739,.T.);
#521=EDGE_CURVE('NONE',#650,#650,#740,.T.);
#522=EDGE_CURVE('NONE',#651,#651,#741,.T.);
#523=EDGE_CURVE('NONE',#652,#652,#742,.T.);
#524=EDGE_CURVE('NONE',#653,#653,#743,.T.);
#525=EDGE_CURVE('NONE',#654,#654,#744,.T.);
#526=EDGE_CURVE('NONE',#655,#655,#745,.T.);
#527=EDGE_CURVE('NONE',#656,#656,#746,.T.);
#528=EDGE_CURVE('',#657,#658,#120,.T.);
#529=EDGE_CURVE('NONE',#657,#645,#121,.T.);
#530=EDGE_CURVE('NONE',#646,#641,#747,.T.);
#531=EDGE_CURVE('NONE',#642,#658,#122,.T.);
#532=EDGE_CURVE('NONE',#659,#659,#748,.T.);
#533=EDGE_CURVE('NONE',#660,#660,#749,.T.);
#534=EDGE_CURVE('NONE',#661,#661,#750,.T.);
#535=EDGE_CURVE('',#657,#662,#123,.T.);
#536=EDGE_CURVE('NONE',#662,#647,#124,.T.);
#537=EDGE_CURVE('NONE',#644,#663,#125,.T.);
#538=EDGE_CURVE('',#663,#658,#126,.T.);
#539=EDGE_CURVE('NONE',#648,#643,#751,.T.);
#540=EDGE_CURVE('',#662,#664,#127,.T.);
#541=EDGE_CURVE('',#664,#663,#128,.T.);
#542=EDGE_CURVE('NONE',#665,#665,#752,.T.);
#543=EDGE_CURVE('NONE',#666,#666,#753,.T.);
#544=EDGE_CURVE('NONE',#667,#667,#754,.T.);
#545=EDGE_CURVE('',#664,#658,#129,.T.);
#546=EDGE_CURVE('',#657,#668,#130,.T.);
#547=EDGE_CURVE('',#668,#669,#131,.T.);
#548=EDGE_CURVE('',#669,#664,#132,.T.);
#549=EDGE_CURVE('',#670,#671,#133,.T.);
#550=EDGE_CURVE('',#671,#672,#134,.T.);
#551=EDGE_CURVE('',#672,#673,#755,.T.);
#552=EDGE_CURVE('',#668,#673,#135,.T.);
#553=EDGE_CURVE('',#674,#657,#136,.T.);
#554=EDGE_CURVE('',#674,#675,#137,.T.);
#555=EDGE_CURVE('',#675,#670,#138,.F.);
#556=EDGE_CURVE('',#673,#676,#139,.T.);
#557=EDGE_CURVE('',#669,#676,#140,.T.);
#558=EDGE_CURVE('',#676,#677,#756,.T.);
#559=EDGE_CURVE('',#677,#678,#141,.T.);
#560=EDGE_CURVE('',#678,#679,#142,.T.);
#561=EDGE_CURVE('',#679,#680,#143,.F.);
#562=EDGE_CURVE('',#658,#680,#144,.T.);
#563=EDGE_CURVE('',#680,#675,#145,.T.);
#564=EDGE_CURVE('',#658,#674,#146,.T.);
#565=EDGE_CURVE('',#681,#681,#757,.F.);
#566=EDGE_CURVE('',#682,#682,#758,.F.);
#567=EDGE_CURVE('',#683,#683,#759,.F.);
#568=EDGE_CURVE('',#684,#684,#760,.F.);
#569=EDGE_CURVE('',#685,#686,#761,.F.);
#570=EDGE_CURVE('',#687,#686,#147,.T.);
#571=EDGE_CURVE('',#687,#688,#762,.F.);
#572=EDGE_CURVE('',#689,#688,#148,.T.);
#573=EDGE_CURVE('',#689,#690,#763,.F.);
#574=EDGE_CURVE('',#691,#690,#149,.T.);
#575=EDGE_CURVE('',#691,#692,#764,.F.);
#576=EDGE_CURVE('',#685,#692,#150,.T.);
#577=EDGE_CURVE('',#693,#694,#151,.T.);
#578=EDGE_CURVE('',#694,#695,#765,.F.);
#579=EDGE_CURVE('',#695,#696,#152,.F.);
#580=EDGE_CURVE('',#696,#697,#766,.F.);
#581=EDGE_CURVE('',#697,#698,#153,.T.);
#582=EDGE_CURVE('',#698,#699,#767,.T.);
#583=EDGE_CURVE('',#699,#700,#154,.T.);
#584=EDGE_CURVE('',#700,#701,#768,.T.);
#585=EDGE_CURVE('',#701,#702,#155,.T.);
#586=EDGE_CURVE('',#702,#703,#769,.T.);
#587=EDGE_CURVE('',#703,#704,#156,.T.);
#588=EDGE_CURVE('',#704,#693,#770,.T.);
#589=EDGE_CURVE('',#697,#705,#157,.F.);
#590=EDGE_CURVE('',#705,#706,#158,.T.);
#591=EDGE_CURVE('',#706,#698,#159,.F.);
#592=EDGE_CURVE('',#707,#708,#160,.T.);
#593=EDGE_CURVE('',#708,#694,#161,.F.);
#594=EDGE_CURVE('',#693,#707,#162,.T.);
#595=EDGE_CURVE('',#692,#709,#163,.T.);
#596=EDGE_CURVE('',#710,#709,#164,.T.);
#597=EDGE_CURVE('',#710,#685,#165,.F.);
#598=EDGE_CURVE('',#686,#711,#166,.T.);
#599=EDGE_CURVE('',#712,#711,#167,.T.);
#600=EDGE_CURVE('',#712,#687,#168,.F.);
#601=EDGE_CURVE('',#713,#714,#169,.T.);
#602=EDGE_CURVE('',#713,#689,#170,.F.);
#603=EDGE_CURVE('',#688,#714,#171,.T.);
#604=EDGE_CURVE('',#699,#715,#172,.T.);
#605=EDGE_CURVE('',#715,#716,#173,.T.);
#606=EDGE_CURVE('',#716,#700,#174,.F.);
#607=EDGE_CURVE('',#717,#718,#175,.T.);
#608=EDGE_CURVE('',#718,#702,#176,.F.);
#609=EDGE_CURVE('',#701,#717,#177,.T.);
#610=EDGE_CURVE('',#703,#719,#178,.T.);
#611=EDGE_CURVE('',#719,#720,#179,.T.);
#612=EDGE_CURVE('',#720,#704,#180,.F.);
#613=EDGE_CURVE('',#721,#721,#771,.F.);
#614=EDGE_CURVE('',#722,#722,#772,.T.);
#615=EDGE_CURVE('',#723,#723,#773,.T.);
#616=EDGE_CURVE('',#724,#724,#774,.F.);
#617=EDGE_CURVE('',#725,#725,#775,.T.);
#618=EDGE_CURVE('',#726,#726,#776,.F.);
#619=EDGE_CURVE('',#727,#727,#777,.T.);
#620=EDGE_CURVE('',#728,#728,#778,.F.);
#621=EDGE_CURVE('',#729,#730,#181,.T.);
#622=EDGE_CURVE('',#729,#691,#182,.F.);
#623=EDGE_CURVE('',#690,#730,#183,.T.);
#624=EDGE_CURVE('',#731,#731,#779,.T.);
#625=EDGE_CURVE('',#732,#732,#780,.T.);
#626=EDGE_CURVE('',#733,#733,#781,.T.);
#627=EDGE_CURVE('',#734,#734,#782,.T.);
#628=EDGE_CURVE('',#711,#710,#783,.T.);
#629=EDGE_CURVE('',#709,#729,#784,.T.);
#630=EDGE_CURVE('',#730,#713,#785,.T.);
#631=EDGE_CURVE('',#714,#712,#786,.T.);
#632=EDGE_CURVE('',#670,#679,#184,.T.);
#633=EDGE_CURVE('',#678,#708,#787,.T.);
#634=EDGE_CURVE('',#707,#720,#788,.F.);
#635=EDGE_CURVE('',#719,#718,#789,.F.);
#636=EDGE_CURVE('',#717,#716,#790,.F.);
#637=EDGE_CURVE('',#715,#706,#791,.F.);
#638=EDGE_CURVE('',#705,#671,#792,.T.);
#639=EDGE_CURVE('',#672,#696,#87,.T.);
#640=EDGE_CURVE('',#695,#677,#88,.T.);
#641=VERTEX_POINT('',#1565);
#642=VERTEX_POINT('',#1566);
#643=VERTEX_POINT('',#1568);
#644=VERTEX_POINT('',#1570);
#645=VERTEX_POINT('',#1574);
#646=VERTEX_POINT('',#1575);
#647=VERTEX_POINT('',#1577);
#648=VERTEX_POINT('',#1579);
#649=VERTEX_POINT('',#1583);
#650=VERTEX_POINT('',#1585);
#651=VERTEX_POINT('',#1588);
#652=VERTEX_POINT('',#1590);
#653=VERTEX_POINT('',#1593);
#654=VERTEX_POINT('',#1595);
#655=VERTEX_POINT('',#1598);
#656=VERTEX_POINT('',#1600);
#657=VERTEX_POINT('',#1603);
#658=VERTEX_POINT('',#1604);
#659=VERTEX_POINT('',#1609);
#660=VERTEX_POINT('',#1611);
#661=VERTEX_POINT('',#1613);
#662=VERTEX_POINT('',#1616);
#663=VERTEX_POINT('',#1620);
#664=VERTEX_POINT('',#1626);
#665=VERTEX_POINT('',#1629);
#666=VERTEX_POINT('',#1631);
#667=VERTEX_POINT('',#1633);
#668=VERTEX_POINT('',#1645);
#669=VERTEX_POINT('',#1647);
#670=VERTEX_POINT('',#1651);
#671=VERTEX_POINT('',#1652);
#672=VERTEX_POINT('',#1654);
#673=VERTEX_POINT('',#1656);
#674=VERTEX_POINT('',#1659);
#675=VERTEX_POINT('',#1661);
#676=VERTEX_POINT('',#1665);
#677=VERTEX_POINT('',#1669);
#678=VERTEX_POINT('',#1671);
#679=VERTEX_POINT('',#1673);
#680=VERTEX_POINT('',#1675);
#681=VERTEX_POINT('',#1683);
#682=VERTEX_POINT('',#1685);
#683=VERTEX_POINT('',#1687);
#684=VERTEX_POINT('',#1689);
#685=VERTEX_POINT('',#1691);
#686=VERTEX_POINT('',#1692);
#687=VERTEX_POINT('',#1694);
#688=VERTEX_POINT('',#1696);
#689=VERTEX_POINT('',#1698);
#690=VERTEX_POINT('',#1700);
#691=VERTEX_POINT('',#1702);
#692=VERTEX_POINT('',#1704);
#693=VERTEX_POINT('',#1707);
#694=VERTEX_POINT('',#1708);
#695=VERTEX_POINT('',#1710);
#696=VERTEX_POINT('',#1712);
#697=VERTEX_POINT('',#1714);
#698=VERTEX_POINT('',#1716);
#699=VERTEX_POINT('',#1718);
#700=VERTEX_POINT('',#1720);
#701=VERTEX_POINT('',#1722);
#702=VERTEX_POINT('',#1724);
#703=VERTEX_POINT('',#1726);
#704=VERTEX_POINT('',#1728);
#705=VERTEX_POINT('',#1732);
#706=VERTEX_POINT('',#1734);
#707=VERTEX_POINT('',#1738);
#708=VERTEX_POINT('',#1739);
#709=VERTEX_POINT('',#1744);
#710=VERTEX_POINT('',#1746);
#711=VERTEX_POINT('',#1750);
#712=VERTEX_POINT('',#1752);
#713=VERTEX_POINT('',#1756);
#714=VERTEX_POINT('',#1757);
#715=VERTEX_POINT('',#1762);
#716=VERTEX_POINT('',#1764);
#717=VERTEX_POINT('',#1768);
#718=VERTEX_POINT('',#1769);
#719=VERTEX_POINT('',#1774);
#720=VERTEX_POINT('',#1776);
#721=VERTEX_POINT('',#1780);
#722=VERTEX_POINT('',#1782);
#723=VERTEX_POINT('',#1785);
#724=VERTEX_POINT('',#1787);
#725=VERTEX_POINT('',#1790);
#726=VERTEX_POINT('',#1792);
#727=VERTEX_POINT('',#1795);
#728=VERTEX_POINT('',#1797);
#729=VERTEX_POINT('',#1800);
#730=VERTEX_POINT('',#1801);
#731=VERTEX_POINT('',#1806);
#732=VERTEX_POINT('',#1808);
#733=VERTEX_POINT('',#1810);
#734=VERTEX_POINT('',#1812);
#735=CIRCLE('',#1090,0.5);
#736=CIRCLE('',#1091,0.5);
#737=CIRCLE('',#1093,0.5);
#738=CIRCLE('',#1094,0.5);
#739=CIRCLE('',#1096,1.70000000000001);
#740=CIRCLE('',#1097,4.00000000000001);
#741=CIRCLE('',#1099,1.70000000000001);
#742=CIRCLE('',#1100,3.25);
#743=CIRCLE('',#1102,1.70000000000001);
#744=CIRCLE('',#1103,3.25);
#745=CIRCLE('',#1105,1.70000000000001);
#746=CIRCLE('',#1106,3.25);
#747=CIRCLE('',#1108,17.5);
#748=CIRCLE('',#1109,3.25);
#749=CIRCLE('',#1110,3.25);
#750=CIRCLE('',#1111,3.25);
#751=CIRCLE('',#1115,17.5);
#752=CIRCLE('',#1117,1.70000000000001);
#753=CIRCLE('',#1118,1.70000000000001);
#754=CIRCLE('',#1119,4.00000000000001);
#755=CIRCLE('',#1130,4.);
#756=CIRCLE('',#1133,4.);
#757=CIRCLE('',#1137,3.52499999999999);
#758=CIRCLE('',#1138,3.52499999999999);
#759=CIRCLE('',#1139,3.52499999999999);
#760=CIRCLE('',#1140,3.52499999999999);
#761=CIRCLE('',#1141,6.);
#762=CIRCLE('',#1142,6.);
#763=CIRCLE('',#1143,6.);
#764=CIRCLE('',#1144,6.);
#765=CIRCLE('',#1145,4.);
#766=CIRCLE('',#1146,4.);
#767=CIRCLE('',#1147,6.);
#768=CIRCLE('',#1148,6.);
#769=CIRCLE('',#1149,6.);
#770=CIRCLE('',#1150,6.);
#771=CIRCLE('',#1160,3.025);
#772=CIRCLE('',#1161,3.025);
#773=CIRCLE('',#1163,3.025);
#774=CIRCLE('',#1164,3.025);
#775=CIRCLE('',#1166,3.025);
#776=CIRCLE('',#1167,3.025);
#777=CIRCLE('',#1169,3.025);
#778=CIRCLE('',#1170,3.025);
#779=CIRCLE('',#1173,3.52499999999998);
#780=CIRCLE('',#1174,3.52499999999998);
#781=CIRCLE('',#1175,3.52499999999999);
#782=CIRCLE('',#1176,3.52499999999998);
#783=CIRCLE('',#1177,6.);
#784=CIRCLE('',#1178,6.);
#785=CIRCLE('',#1179,6.);
#786=CIRCLE('',#1180,6.);
#787=CIRCLE('',#1181,4.);
#788=CIRCLE('',#1182,6.);
#789=CIRCLE('',#1183,6.);
#790=CIRCLE('',#1184,6.);
#791=CIRCLE('',#1185,6.);
#792=CIRCLE('',#1186,4.);
#793=EDGE_LOOP('',(#254,#255,#256,#257));
#794=EDGE_LOOP('',(#258,#259,#260,#261));
#795=EDGE_LOOP('',(#262));
#796=EDGE_LOOP('',(#263));
#797=EDGE_LOOP('',(#264));
#798=EDGE_LOOP('',(#265));
#799=EDGE_LOOP('',(#266));
#800=EDGE_LOOP('',(#267));
#801=EDGE_LOOP('',(#268));
#802=EDGE_LOOP('',(#269));
#803=EDGE_LOOP('',(#270,#271,#272,#273,#274,#275));
#804=EDGE_LOOP('',(#276));
#805=EDGE_LOOP('',(#277));
#806=EDGE_LOOP('',(#278));
#807=EDGE_LOOP('',(#279,#280,#281,#282));
#808=EDGE_LOOP('',(#283,#284,#285,#286));
#809=EDGE_LOOP('',(#287,#288,#289,#290));
#810=EDGE_LOOP('',(#291,#292,#293,#294,#295,#296,#297));
#811=EDGE_LOOP('',(#298));
#812=EDGE_LOOP('',(#299));
#813=EDGE_LOOP('',(#300));
#814=EDGE_LOOP('',(#301));
#815=EDGE_LOOP('',(#302));
#816=EDGE_LOOP('',(#303));
#817=EDGE_LOOP('',(#304));
#818=EDGE_LOOP('',(#305));
#819=EDGE_LOOP('',(#306));
#820=EDGE_LOOP('',(#307));
#821=EDGE_LOOP('',(#308));
#822=EDGE_LOOP('',(#309));
#823=EDGE_LOOP('',(#310));
#824=EDGE_LOOP('',(#311));
#825=EDGE_LOOP('',(#312));
#826=EDGE_LOOP('',(#313));
#827=EDGE_LOOP('',(#314));
#828=EDGE_LOOP('',(#315,#316,#317));
#829=EDGE_LOOP('',(#318,#319,#320,#321,#322));
#830=EDGE_LOOP('',(#323,#324,#325,#326,#327,#328,#329,#330));
#831=EDGE_LOOP('',(#331,#332,#333,#334));
#832=EDGE_LOOP('',(#335,#336,#337,#338,#339,#340,#341,#342));
#833=EDGE_LOOP('',(#343,#344,#345,#346));
#834=EDGE_LOOP('',(#347,#348,#349));
#835=EDGE_LOOP('',(#350));
#836=EDGE_LOOP('',(#351));
#837=EDGE_LOOP('',(#352));
#838=EDGE_LOOP('',(#353));
#839=EDGE_LOOP('',(#354,#355,#356,#357,#358,#359,#360,#361));
#840=EDGE_LOOP('',(#362,#363,#364,#365,#366,#367,#368,#369,#370,#371,#372,
#373));
#841=EDGE_LOOP('',(#374,#375,#376,#377));
#842=EDGE_LOOP('',(#378,#379,#380,#381));
#843=EDGE_LOOP('',(#382,#383,#384,#385));
#844=EDGE_LOOP('',(#386,#387,#388,#389));
#845=EDGE_LOOP('',(#390,#391,#392,#393));
#846=EDGE_LOOP('',(#394,#395,#396,#397));
#847=EDGE_LOOP('',(#398,#399,#400,#401));
#848=EDGE_LOOP('',(#402,#403,#404,#405));
#849=EDGE_LOOP('',(#406));
#850=EDGE_LOOP('',(#407));
#851=EDGE_LOOP('',(#408));
#852=EDGE_LOOP('',(#409));
#853=EDGE_LOOP('',(#410));
#854=EDGE_LOOP('',(#411));
#855=EDGE_LOOP('',(#412));
#856=EDGE_LOOP('',(#413));
#857=EDGE_LOOP('',(#414,#415,#416,#417));
#858=EDGE_LOOP('',(#418));
#859=EDGE_LOOP('',(#419));
#860=EDGE_LOOP('',(#420));
#861=EDGE_LOOP('',(#421));
#862=EDGE_LOOP('',(#422,#423,#424,#425,#426,#427,#428,#429));
#863=EDGE_LOOP('',(#430,#431,#432,#433,#434,#435,#436,#437,#438,#439,#440,
#441,#442,#443));
#864=EDGE_LOOP('',(#444,#445,#446,#447));
#865=EDGE_LOOP('',(#448,#449,#450,#451));
#866=EDGE_LOOP('',(#452,#453,#454,#455));
#867=EDGE_LOOP('',(#456,#457,#458,#459));
#868=EDGE_LOOP('',(#460,#461,#462,#463));
#869=EDGE_LOOP('',(#464,#465,#466,#467));
#870=EDGE_LOOP('',(#468,#469,#470,#471));
#871=EDGE_LOOP('',(#472,#473,#474,#475));
#872=EDGE_LOOP('',(#476,#477,#478,#479,#480,#481));
#873=EDGE_LOOP('',(#482,#483,#484,#485));
#874=EDGE_LOOP('',(#486));
#875=EDGE_LOOP('',(#487));
#876=EDGE_LOOP('',(#488));
#877=EDGE_LOOP('',(#489));
#878=EDGE_LOOP('',(#490));
#879=EDGE_LOOP('',(#491));
#880=EDGE_LOOP('',(#492));
#881=EDGE_LOOP('',(#493));
#882=EDGE_LOOP('',(#494));
#883=EDGE_LOOP('',(#495));
#884=EDGE_LOOP('',(#496));
#885=EDGE_LOOP('',(#497));
#886=EDGE_LOOP('',(#498));
#887=EDGE_LOOP('',(#499));
#888=EDGE_LOOP('',(#500));
#889=EDGE_LOOP('',(#501));
#890=EDGE_LOOP('',(#502,#503,#504,#505,#506));
#891=EDGE_LOOP('',(#507,#508,#509,#510,#511));
#892=FACE_BOUND('',#793,.T.);
#893=FACE_BOUND('',#794,.T.);
#894=FACE_BOUND('',#795,.T.);
#895=FACE_BOUND('',#796,.T.);
#896=FACE_BOUND('',#797,.T.);
#897=FACE_BOUND('',#798,.T.);
#898=FACE_BOUND('',#799,.T.);
#899=FACE_BOUND('',#800,.T.);
#900=FACE_BOUND('',#801,.T.);
#901=FACE_BOUND('',#802,.T.);
#902=FACE_BOUND('',#803,.T.);
#903=FACE_BOUND('',#804,.T.);
#904=FACE_BOUND('',#805,.T.);
#905=FACE_BOUND('',#806,.T.);
#906=FACE_BOUND('',#807,.T.);
#907=FACE_BOUND('',#808,.T.);
#908=FACE_BOUND('',#809,.T.);
#909=FACE_BOUND('',#810,.T.);
#910=FACE_BOUND('',#811,.T.);
#911=FACE_BOUND('',#812,.T.);
#912=FACE_BOUND('',#813,.T.);
#913=FACE_BOUND('',#814,.T.);
#914=FACE_BOUND('',#815,.T.);
#915=FACE_BOUND('',#816,.T.);
#916=FACE_BOUND('',#817,.T.);
#917=FACE_BOUND('',#818,.T.);
#918=FACE_BOUND('',#819,.T.);
#919=FACE_BOUND('',#820,.T.);
#920=FACE_BOUND('',#821,.T.);
#921=FACE_BOUND('',#822,.T.);
#922=FACE_BOUND('',#823,.T.);
#923=FACE_BOUND('',#824,.T.);
#924=FACE_BOUND('',#825,.T.);
#925=FACE_BOUND('',#826,.T.);
#926=FACE_BOUND('',#827,.T.);
#927=FACE_BOUND('',#828,.T.);
#928=FACE_BOUND('',#829,.T.);
#929=FACE_BOUND('',#830,.T.);
#930=FACE_BOUND('',#831,.T.);
#931=FACE_BOUND('',#832,.T.);
#932=FACE_BOUND('',#833,.T.);
#933=FACE_BOUND('',#834,.T.);
#934=FACE_BOUND('',#835,.T.);
#935=FACE_BOUND('',#836,.T.);
#936=FACE_BOUND('',#837,.T.);
#937=FACE_BOUND('',#838,.T.);
#938=FACE_BOUND('',#839,.T.);
#939=FACE_BOUND('',#840,.T.);
#940=FACE_BOUND('',#841,.T.);
#941=FACE_BOUND('',#842,.T.);
#942=FACE_BOUND('',#843,.T.);
#943=FACE_BOUND('',#844,.T.);
#944=FACE_BOUND('',#845,.T.);
#945=FACE_BOUND('',#846,.T.);
#946=FACE_BOUND('',#847,.T.);
#947=FACE_BOUND('',#848,.T.);
#948=FACE_BOUND('',#849,.T.);
#949=FACE_BOUND('',#850,.T.);
#950=FACE_BOUND('',#851,.T.);
#951=FACE_BOUND('',#852,.T.);
#952=FACE_BOUND('',#853,.T.);
#953=FACE_BOUND('',#854,.T.);
#954=FACE_BOUND('',#855,.T.);
#955=FACE_BOUND('',#856,.T.);
#956=FACE_BOUND('',#857,.T.);
#957=FACE_BOUND('',#858,.T.);
#958=FACE_BOUND('',#859,.T.);
#959=FACE_BOUND('',#860,.T.);
#960=FACE_BOUND('',#861,.T.);
#961=FACE_BOUND('',#862,.T.);
#962=FACE_BOUND('',#863,.T.);
#963=FACE_BOUND('',#864,.T.);
#964=FACE_BOUND('',#865,.T.);
#965=FACE_BOUND('',#866,.T.);
#966=FACE_BOUND('',#867,.T.);
#967=FACE_BOUND('',#868,.T.);
#968=FACE_BOUND('',#869,.T.);
#969=FACE_BOUND('',#870,.T.);
#970=FACE_BOUND('',#871,.T.);
#971=FACE_BOUND('',#872,.T.);
#972=FACE_BOUND('',#873,.T.);
#973=FACE_BOUND('',#874,.T.);
#974=FACE_BOUND('',#875,.T.);
#975=FACE_BOUND('',#876,.T.);
#976=FACE_BOUND('',#877,.T.);
#977=FACE_BOUND('',#878,.T.);
#978=FACE_BOUND('',#879,.T.);
#979=FACE_BOUND('',#880,.T.);
#980=FACE_BOUND('',#881,.T.);
#981=FACE_BOUND('',#882,.T.);
#982=FACE_BOUND('',#883,.T.);
#983=FACE_BOUND('',#884,.T.);
#984=FACE_BOUND('',#885,.T.);
#985=FACE_BOUND('',#886,.T.);
#986=FACE_BOUND('',#887,.T.);
#987=FACE_BOUND('',#888,.T.);
#988=FACE_BOUND('',#889,.T.);
#989=FACE_BOUND('',#890,.T.);
#990=FACE_BOUND('',#891,.T.);
#991=CYLINDRICAL_SURFACE('',#1089,0.5);
#992=CYLINDRICAL_SURFACE('',#1092,0.5);
#993=CYLINDRICAL_SURFACE('',#1114,17.5);
#994=CYLINDRICAL_SURFACE('',#1120,1.70000000000001);
#995=CYLINDRICAL_SURFACE('',#1121,1.70000000000001);
#996=CYLINDRICAL_SURFACE('',#1122,1.70000000000001);
#997=CYLINDRICAL_SURFACE('',#1123,3.25);
#998=CYLINDRICAL_SURFACE('',#1124,3.25);
#999=CYLINDRICAL_SURFACE('',#1125,3.25);
#1000=CYLINDRICAL_SURFACE('',#1126,4.00000000000001);
#1001=CYLINDRICAL_SURFACE('',#1159,3.025);
#1002=CYLINDRICAL_SURFACE('',#1162,3.025);
#1003=CYLINDRICAL_SURFACE('',#1165,3.025);
#1004=CYLINDRICAL_SURFACE('',#1168,3.025);
#1005=CYLINDRICAL_SURFACE('',#1187,6.);
#1006=CYLINDRICAL_SURFACE('',#1188,6.);
#1007=CYLINDRICAL_SURFACE('',#1189,6.);
#1008=CYLINDRICAL_SURFACE('',#1190,6.);
#1009=CYLINDRICAL_SURFACE('',#1191,6.);
#1010=CYLINDRICAL_SURFACE('',#1192,6.);
#1011=CYLINDRICAL_SURFACE('',#1193,6.);
#1012=CYLINDRICAL_SURFACE('',#1194,6.);
#1013=CYLINDRICAL_SURFACE('',#1195,4.);
#1014=CYLINDRICAL_SURFACE('',#1205,4.);
#1015=CYLINDRICAL_SURFACE('',#1206,4.);
#1016=ADVANCED_FACE('NONE',(#892),#991,.T.);
#1017=ADVANCED_FACE('NONE',(#893),#992,.T.);
#1018=ADVANCED_FACE('NONE',(#894,#895),#89,.T.);
#1019=ADVANCED_FACE('NONE',(#896,#897),#90,.T.);
#1020=ADVANCED_FACE('NONE',(#898,#899),#91,.T.);
#1021=ADVANCED_FACE('NONE',(#900,#901),#92,.T.);
#1022=ADVANCED_FACE('NONE',(#902,#903,#904,#905),#93,.T.);
#1023=ADVANCED_FACE('NONE',(#906),#94,.F.);
#1024=ADVANCED_FACE('NONE',(#907),#95,.F.);
#1025=ADVANCED_FACE('NONE',(#908),#993,.T.);
#1026=ADVANCED_FACE('NONE',(#909,#910,#911,#912),#96,.F.);
#1027=ADVANCED_FACE('NONE',(#913,#914),#994,.F.);
#1028=ADVANCED_FACE('NONE',(#915,#916),#995,.F.);
#1029=ADVANCED_FACE('NONE',(#917,#918),#996,.F.);
#1030=ADVANCED_FACE('NONE',(#919,#920),#997,.F.);
#1031=ADVANCED_FACE('NONE',(#921,#922),#998,.F.);
#1032=ADVANCED_FACE('NONE',(#923,#924),#999,.F.);
#1033=ADVANCED_FACE('NONE',(#925,#926),#1000,.F.);
#1034=ADVANCED_FACE('',(#927),#97,.F.);
#1035=ADVANCED_FACE('',(#928),#98,.T.);
#1036=ADVANCED_FACE('',(#929),#99,.F.);
#1037=ADVANCED_FACE('',(#930),#100,.F.);
#1038=ADVANCED_FACE('',(#931),#101,.F.);
#1039=ADVANCED_FACE('',(#932),#102,.F.);
#1040=ADVANCED_FACE('',(#933),#103,.T.);
#1041=ADVANCED_FACE('',(#934,#935,#936,#937,#938,#939),#104,.T.);
#1042=ADVANCED_FACE('',(#940),#105,.F.);
#1043=ADVANCED_FACE('',(#941),#106,.F.);
#1044=ADVANCED_FACE('',(#942),#107,.T.);
#1045=ADVANCED_FACE('',(#943),#108,.T.);
#1046=ADVANCED_FACE('',(#944),#109,.T.);
#1047=ADVANCED_FACE('',(#945),#110,.F.);
#1048=ADVANCED_FACE('',(#946),#111,.F.);
#1049=ADVANCED_FACE('',(#947),#112,.F.);
#1050=ADVANCED_FACE('',(#948,#949),#1001,.F.);
#1051=ADVANCED_FACE('',(#950,#951),#1002,.F.);
#1052=ADVANCED_FACE('',(#952,#953),#1003,.F.);
#1053=ADVANCED_FACE('',(#954,#955),#1004,.F.);
#1054=ADVANCED_FACE('',(#956),#113,.T.);
#1055=ADVANCED_FACE('',(#957,#958,#959,#960,#961,#962),#114,.F.);
#1056=ADVANCED_FACE('',(#963),#1005,.T.);
#1057=ADVANCED_FACE('',(#964),#1006,.T.);
#1058=ADVANCED_FACE('',(#965),#1007,.T.);
#1059=ADVANCED_FACE('',(#966),#1008,.F.);
#1060=ADVANCED_FACE('',(#967),#1009,.F.);
#1061=ADVANCED_FACE('',(#968),#1010,.F.);
#1062=ADVANCED_FACE('',(#969),#1011,.T.);
#1063=ADVANCED_FACE('',(#970),#1012,.F.);
#1064=ADVANCED_FACE('',(#971),#1013,.F.);
#1065=ADVANCED_FACE('',(#972),#115,.F.);
#1066=ADVANCED_FACE('',(#973,#974),#79,.F.);
#1067=ADVANCED_FACE('',(#975,#976),#80,.F.);
#1068=ADVANCED_FACE('',(#977,#978),#81,.F.);
#1069=ADVANCED_FACE('',(#979,#980),#82,.F.);
#1070=ADVANCED_FACE('',(#981,#982),#83,.F.);
#1071=ADVANCED_FACE('',(#983,#984),#84,.F.);
#1072=ADVANCED_FACE('',(#985,#986),#85,.F.);
#1073=ADVANCED_FACE('',(#987,#988),#86,.F.);
#1074=ADVANCED_FACE('',(#989),#1014,.F.);
#1075=ADVANCED_FACE('',(#990),#1015,.F.);
#1076=CLOSED_SHELL('',(#1016,#1017,#1018,#1019,#1020,#1021,#1022,#1023,
#1024,#1025,#1026,#1027,#1028,#1029,#1030,#1031,#1032,#1033,#1034,#1035,
#1036,#1037,#1038,#1039,#1040,#1041,#1042,#1043,#1044,#1045,#1046,#1047,
#1048,#1049,#1050,#1051,#1052,#1053,#1054,#1055,#1056,#1057,#1058,#1059,
#1060,#1061,#1062,#1063,#1064,#1065,#1066,#1067,#1068,#1069,#1070,#1071,
#1072,#1073,#1074,#1075));
#1077=STYLED_ITEM('',(#1078),#1085);
#1078=PRESENTATION_STYLE_ASSIGNMENT((#1079));
#1079=SURFACE_STYLE_USAGE(.BOTH.,#1080);
#1080=SURFACE_SIDE_STYLE('',(#1081));
#1081=SURFACE_STYLE_FILL_AREA(#1082);
#1082=FILL_AREA_STYLE('',(#1083));
#1083=FILL_AREA_STYLE_COLOUR('',#1084);
#1084=COLOUR_RGB('',0.811764705882353,0.843137254901961,0.909803921568627);
#1085=MANIFOLD_SOLID_BREP('\X2\FF8CFF68FF9AFF6FFF84\X0\2',#1076);
#1086=SHAPE_DEFINITION_REPRESENTATION(#1882,#1087);
#1087=SHAPE_REPRESENTATION('openarm_wuji_mount',(#1088),#1877);
#1088=AXIS2_PLACEMENT_3D('',#1562,#1223,#1224);
#1089=AXIS2_PLACEMENT_3D('',#1563,#1225,#1226);
#1090=AXIS2_PLACEMENT_3D('',#1564,#1227,#1228);
#1091=AXIS2_PLACEMENT_3D('',#1569,#1230,#1231);
#1092=AXIS2_PLACEMENT_3D('',#1572,#1233,#1234);
#1093=AXIS2_PLACEMENT_3D('',#1573,#1235,#1236);
#1094=AXIS2_PLACEMENT_3D('',#1578,#1238,#1239);
#1095=AXIS2_PLACEMENT_3D('',#1581,#1241,#1242);
#1096=AXIS2_PLACEMENT_3D('',#1582,#1243,#1244);
#1097=AXIS2_PLACEMENT_3D('',#1584,#1245,#1246);
#1098=AXIS2_PLACEMENT_3D('',#1586,#1247,#1248);
#1099=AXIS2_PLACEMENT_3D('',#1587,#1249,#1250);
#1100=AXIS2_PLACEMENT_3D('',#1589,#1251,#1252);
#1101=AXIS2_PLACEMENT_3D('',#1591,#1253,#1254);
#1102=AXIS2_PLACEMENT_3D('',#1592,#1255,#1256);
#1103=AXIS2_PLACEMENT_3D('',#1594,#1257,#1258);
#1104=AXIS2_PLACEMENT_3D('',#1596,#1259,#1260);
#1105=AXIS2_PLACEMENT_3D('',#1597,#1261,#1262);
#1106=AXIS2_PLACEMENT_3D('',#1599,#1263,#1264);
#1107=AXIS2_PLACEMENT_3D('',#1601,#1265,#1266);
#1108=AXIS2_PLACEMENT_3D('',#1606,#1269,#1270);
#1109=AXIS2_PLACEMENT_3D('',#1608,#1272,#1273);
#1110=AXIS2_PLACEMENT_3D('',#1610,#1274,#1275);
#1111=AXIS2_PLACEMENT_3D('',#1612,#1276,#1277);
#1112=AXIS2_PLACEMENT_3D('',#1614,#1278,#1279);
#1113=AXIS2_PLACEMENT_3D('',#1618,#1282,#1283);
#1114=AXIS2_PLACEMENT_3D('',#1622,#1286,#1287);
#1115=AXIS2_PLACEMENT_3D('',#1623,#1288,#1289);
#1116=AXIS2_PLACEMENT_3D('',#1624,#1290,#1291);
#1117=AXIS2_PLACEMENT_3D('',#1628,#1294,#1295);
#1118=AXIS2_PLACEMENT_3D('',#1630,#1296,#1297);
#1119=AXIS2_PLACEMENT_3D('',#1632,#1298,#1299);
#1120=AXIS2_PLACEMENT_3D('',#1634,#1300,#1301);
#1121=AXIS2_PLACEMENT_3D('',#1635,#1302,#1303);
#1122=AXIS2_PLACEMENT_3D('',#1636,#1304,#1305);
#1123=AXIS2_PLACEMENT_3D('',#1637,#1306,#1307);
#1124=AXIS2_PLACEMENT_3D('',#1638,#1308,#1309);
#1125=AXIS2_PLACEMENT_3D('',#1639,#1310,#1311);
#1126=AXIS2_PLACEMENT_3D('',#1640,#1312,#1313);
#1127=AXIS2_PLACEMENT_3D('',#1641,#1314,#1315);
#1128=AXIS2_PLACEMENT_3D('',#1643,#1317,#1318);
#1129=AXIS2_PLACEMENT_3D('',#1649,#1322,#1323);
#1130=AXIS2_PLACEMENT_3D('',#1655,#1326,#1327);
#1131=AXIS2_PLACEMENT_3D('',#1663,#1332,#1333);
#1132=AXIS2_PLACEMENT_3D('',#1667,#1336,#1337);
#1133=AXIS2_PLACEMENT_3D('',#1668,#1338,#1339);
#1134=AXIS2_PLACEMENT_3D('',#1677,#1344,#1345);
#1135=AXIS2_PLACEMENT_3D('',#1680,#1348,#1349);
#1136=AXIS2_PLACEMENT_3D('',#1681,#1350,#1351);
#1137=AXIS2_PLACEMENT_3D('',#1682,#1352,#1353);
#1138=AXIS2_PLACEMENT_3D('',#1684,#1354,#1355);
#1139=AXIS2_PLACEMENT_3D('',#1686,#1356,#1357);
#1140=AXIS2_PLACEMENT_3D('',#1688,#1358,#1359);
#1141=AXIS2_PLACEMENT_3D('',#1690,#1360,#1361);
#1142=AXIS2_PLACEMENT_3D('',#1695,#1363,#1364);
#1143=AXIS2_PLACEMENT_3D('',#1699,#1366,#1367);
#1144=AXIS2_PLACEMENT_3D('',#1703,#1369,#1370);
#1145=AXIS2_PLACEMENT_3D('',#1709,#1373,#1374);
#1146=AXIS2_PLACEMENT_3D('',#1713,#1376,#1377);
#1147=AXIS2_PLACEMENT_3D('',#1717,#1379,#1380);
#1148=AXIS2_PLACEMENT_3D('',#1721,#1382,#1383);
#1149=AXIS2_PLACEMENT_3D('',#1725,#1385,#1386);
#1150=AXIS2_PLACEMENT_3D('',#1729,#1388,#1389);
#1151=AXIS2_PLACEMENT_3D('',#1730,#1390,#1391);
#1152=AXIS2_PLACEMENT_3D('',#1736,#1395,#1396);
#1153=AXIS2_PLACEMENT_3D('',#1742,#1400,#1401);
#1154=AXIS2_PLACEMENT_3D('',#1748,#1405,#1406);
#1155=AXIS2_PLACEMENT_3D('',#1754,#1410,#1411);
#1156=AXIS2_PLACEMENT_3D('',#1760,#1415,#1416);
#1157=AXIS2_PLACEMENT_3D('',#1766,#1420,#1421);
#1158=AXIS2_PLACEMENT_3D('',#1772,#1425,#1426);
#1159=AXIS2_PLACEMENT_3D('',#1778,#1430,#1431);
#1160=AXIS2_PLACEMENT_3D('',#1779,#1432,#1433);
#1161=AXIS2_PLACEMENT_3D('',#1781,#1434,#1435);
#1162=AXIS2_PLACEMENT_3D('',#1783,#1436,#1437);
#1163=AXIS2_PLACEMENT_3D('',#1784,#1438,#1439);
#1164=AXIS2_PLACEMENT_3D('',#1786,#1440,#1441);
#1165=AXIS2_PLACEMENT_3D('',#1788,#1442,#1443);
#1166=AXIS2_PLACEMENT_3D('',#1789,#1444,#1445);
#1167=AXIS2_PLACEMENT_3D('',#1791,#1446,#1447);
#1168=AXIS2_PLACEMENT_3D('',#1793,#1448,#1449);
#1169=AXIS2_PLACEMENT_3D('',#1794,#1450,#1451);
#1170=AXIS2_PLACEMENT_3D('',#1796,#1452,#1453);
#1171=AXIS2_PLACEMENT_3D('',#1798,#1454,#1455);
#1172=AXIS2_PLACEMENT_3D('',#1804,#1459,#1460);
#1173=AXIS2_PLACEMENT_3D('',#1805,#1461,#1462);
#1174=AXIS2_PLACEMENT_3D('',#1807,#1463,#1464);
#1175=AXIS2_PLACEMENT_3D('',#1809,#1465,#1466);
#1176=AXIS2_PLACEMENT_3D('',#1811,#1467,#1468);
#1177=AXIS2_PLACEMENT_3D('',#1813,#1469,#1470);
#1178=AXIS2_PLACEMENT_3D('',#1814,#1471,#1472);
#1179=AXIS2_PLACEMENT_3D('',#1815,#1473,#1474);
#1180=AXIS2_PLACEMENT_3D('',#1816,#1475,#1476);
#1181=AXIS2_PLACEMENT_3D('',#1818,#1478,#1479);
#1182=AXIS2_PLACEMENT_3D('',#1819,#1480,#1481);
#1183=AXIS2_PLACEMENT_3D('',#1820,#1482,#1483);
#1184=AXIS2_PLACEMENT_3D('',#1821,#1484,#1485);
#1185=AXIS2_PLACEMENT_3D('',#1822,#1486,#1487);
#1186=AXIS2_PLACEMENT_3D('',#1823,#1488,#1489);
#1187=AXIS2_PLACEMENT_3D('',#1824,#1490,#1491);
#1188=AXIS2_PLACEMENT_3D('',#1825,#1492,#1493);
#1189=AXIS2_PLACEMENT_3D('',#1826,#1494,#1495);
#1190=AXIS2_PLACEMENT_3D('',#1827,#1496,#1497);
#1191=AXIS2_PLACEMENT_3D('',#1828,#1498,#1499);
#1192=AXIS2_PLACEMENT_3D('',#1829,#1500,#1501);
#1193=AXIS2_PLACEMENT_3D('',#1830,#1502,#1503);
#1194=AXIS2_PLACEMENT_3D('',#1831,#1504,#1505);
#1195=AXIS2_PLACEMENT_3D('',#1832,#1506,#1507);
#1196=AXIS2_PLACEMENT_3D('',#1841,#1508,#1509);
#1197=AXIS2_PLACEMENT_3D('',#1842,#1510,#1511);
#1198=AXIS2_PLACEMENT_3D('',#1843,#1512,#1513);
#1199=AXIS2_PLACEMENT_3D('',#1844,#1514,#1515);
#1200=AXIS2_PLACEMENT_3D('',#1845,#1516,#1517);
#1201=AXIS2_PLACEMENT_3D('',#1846,#1518,#1519);
#1202=AXIS2_PLACEMENT_3D('',#1847,#1520,#1521);
#1203=AXIS2_PLACEMENT_3D('',#1848,#1522,#1523);
#1204=AXIS2_PLACEMENT_3D('',#1849,#1524,#1525);
#1205=AXIS2_PLACEMENT_3D('',#1850,#1526,#1527);
#1206=AXIS2_PLACEMENT_3D('',#1851,#1528,#1529);
#1207=AXIS2_PLACEMENT_3D('',#1852,#1530,#1531);
#1208=AXIS2_PLACEMENT_3D('',#1854,#1532,#1533);
#1209=AXIS2_PLACEMENT_3D('',#1855,#1534,#1535);
#1210=AXIS2_PLACEMENT_3D('',#1857,#1536,#1537);
#1211=AXIS2_PLACEMENT_3D('',#1858,#1538,#1539);
#1212=AXIS2_PLACEMENT_3D('',#1860,#1540,#1541);
#1213=AXIS2_PLACEMENT_3D('',#1861,#1542,#1543);
#1214=AXIS2_PLACEMENT_3D('',#1863,#1544,#1545);
#1215=AXIS2_PLACEMENT_3D('',#1864,#1546,#1547);
#1216=AXIS2_PLACEMENT_3D('',#1866,#1548,#1549);
#1217=AXIS2_PLACEMENT_3D('',#1867,#1550,#1551);
#1218=AXIS2_PLACEMENT_3D('',#1869,#1552,#1553);
#1219=AXIS2_PLACEMENT_3D('',#1870,#1554,#1555);
#1220=AXIS2_PLACEMENT_3D('',#1872,#1556,#1557);
#1221=AXIS2_PLACEMENT_3D('',#1873,#1558,#1559);
#1222=AXIS2_PLACEMENT_3D('',#1875,#1560,#1561);
#1223=DIRECTION('',(0.,0.,1.));
#1224=DIRECTION('',(1.,0.,0.));
#1225=DIRECTION('',(-1.,0.,0.));
#1226=DIRECTION('',(0.,1.,0.));
#1227=DIRECTION('',(1.,0.,0.));
#1228=DIRECTION('',(0.,-1.,0.));
#1229=DIRECTION('',(1.,0.,0.));
#1230=DIRECTION('',(-1.,0.,0.));
#1231=DIRECTION('',(0.,-1.,0.));
#1232=DIRECTION('',(-1.,0.,0.));
#1233=DIRECTION('',(-1.,0.,0.));
#1234=DIRECTION('',(0.,1.,0.));
#1235=DIRECTION('',(1.,0.,0.));
#1236=DIRECTION('',(0.,-1.,0.));
#1237=DIRECTION('',(1.,0.,0.));
#1238=DIRECTION('',(-1.,0.,0.));
#1239=DIRECTION('',(0.,-1.,0.));
#1240=DIRECTION('',(-1.,0.,0.));
#1241=DIRECTION('',(-1.,0.,0.));
#1242=DIRECTION('',(0.,1.,0.));
#1243=DIRECTION('',(1.,0.,0.));
#1244=DIRECTION('',(0.,1.,0.));
#1245=DIRECTION('',(-1.,0.,0.));
#1246=DIRECTION('',(0.,1.,0.));
#1247=DIRECTION('',(1.,0.,0.));
#1248=DIRECTION('',(0.,-1.,0.));
#1249=DIRECTION('',(-1.,0.,0.));
#1250=DIRECTION('',(0.,-1.,0.));
#1251=DIRECTION('',(1.,0.,0.));
#1252=DIRECTION('',(0.,-1.,0.));
#1253=DIRECTION('',(1.,0.,0.));
#1254=DIRECTION('',(0.,-1.,0.));
#1255=DIRECTION('',(-1.,0.,0.));
#1256=DIRECTION('',(0.,-1.,0.));
#1257=DIRECTION('',(1.,0.,0.));
#1258=DIRECTION('',(0.,-1.,0.));
#1259=DIRECTION('',(1.,0.,0.));
#1260=DIRECTION('',(0.,-1.,0.));
#1261=DIRECTION('',(-1.,0.,0.));
#1262=DIRECTION('',(0.,-1.,0.));
#1263=DIRECTION('',(1.,0.,0.));
#1264=DIRECTION('',(0.,-1.,0.));
#1265=DIRECTION('',(1.,0.,0.));
#1266=DIRECTION('',(0.,-1.,0.));
#1267=DIRECTION('',(0.,-1.,0.));
#1268=DIRECTION('',(0.,-1.21063596679114E-16,1.));
#1269=DIRECTION('',(1.,0.,0.));
#1270=DIRECTION('',(0.,-1.,0.));
#1271=DIRECTION('',(0.,-1.21765985182122E-16,-1.));
#1272=DIRECTION('',(1.,0.,0.));
#1273=DIRECTION('',(0.,-1.,0.));
#1274=DIRECTION('',(1.,0.,0.));
#1275=DIRECTION('',(0.,-1.,0.));
#1276=DIRECTION('',(1.,0.,0.));
#1277=DIRECTION('',(0.,-1.,0.));
#1278=DIRECTION('',(0.,-1.,-1.21063596679114E-16));
#1279=DIRECTION('',(0.,1.21063596679114E-16,-1.));
#1280=DIRECTION('',(-1.,0.,0.));
#1281=DIRECTION('',(0.,-1.21063596679114E-16,1.));
#1282=DIRECTION('',(0.,1.,-1.21765985182122E-16));
#1283=DIRECTION('',(0.,1.21765985182122E-16,1.));
#1284=DIRECTION('',(0.,-1.21765985182122E-16,-1.));
#1285=DIRECTION('',(1.,0.,0.));
#1286=DIRECTION('',(-1.,0.,0.));
#1287=DIRECTION('',(0.,1.,0.));
#1288=DIRECTION('',(1.,0.,0.));
#1289=DIRECTION('',(0.,-1.,0.));
#1290=DIRECTION('',(1.,0.,0.));
#1291=DIRECTION('',(0.,-1.,0.));
#1292=DIRECTION('',(0.,-1.,0.));
#1293=DIRECTION('',(0.,-1.,0.));
#1294=DIRECTION('',(1.,0.,0.));
#1295=DIRECTION('',(0.,-1.,0.));
#1296=DIRECTION('',(1.,0.,0.));
#1297=DIRECTION('',(0.,-1.,0.));
#1298=DIRECTION('',(-1.,0.,0.));
#1299=DIRECTION('',(0.,1.,0.));
#1300=DIRECTION('',(1.,0.,0.));
#1301=DIRECTION('',(0.,-1.,0.));
#1302=DIRECTION('',(1.,0.,0.));
#1303=DIRECTION('',(0.,-1.,0.));
#1304=DIRECTION('',(1.,0.,0.));
#1305=DIRECTION('',(0.,-1.,0.));
#1306=DIRECTION('',(1.,0.,0.));
#1307=DIRECTION('',(0.,-1.,0.));
#1308=DIRECTION('',(1.,0.,0.));
#1309=DIRECTION('',(0.,-1.,0.));
#1310=DIRECTION('',(1.,0.,0.));
#1311=DIRECTION('',(0.,-1.,0.));
#1312=DIRECTION('',(-1.,0.,0.));
#1313=DIRECTION('',(0.,1.,0.));
#1314=DIRECTION('',(0.,0.,1.));
#1315=DIRECTION('',(-1.,0.,0.));
#1316=DIRECTION('',(0.999999809923552,-0.000616565374222132,0.));
#1317=DIRECTION('',(0.,0.,1.));
#1318=DIRECTION('',(-1.,0.,0.));
#1319=DIRECTION('',(-0.999999809923552,0.000616565374222265,0.));
#1320=DIRECTION('',(-0.000616518972159755,-0.99999980995216,0.));
#1321=DIRECTION('',(0.999999809923552,-0.000616565374222132,0.));
#1322=DIRECTION('',(-0.000616565293844546,-0.999999679559917,0.000510614632055848));
#1323=DIRECTION('',(-0.999999809923552,0.000616565374222265,0.));
#1324=DIRECTION('',(-0.999999805823035,0.00061651896961263,-9.08749225499463E-5));
#1325=DIRECTION('',(-9.05600898231523E-5,0.000510670563229574,0.999999865507214));
#1326=DIRECTION('',(-0.000616565293844546,-0.999999679559917,0.000510614632055848));
#1327=DIRECTION('',(-0.999999809923552,0.000616565374222265,0.));
#1328=DIRECTION('',(9.05600898231523E-5,-0.000510670563229574,-0.999999865507214));
#1329=DIRECTION('',(-0.999999809923552,0.000616565374222265,0.));
#1330=DIRECTION('',(9.05600898231523E-5,-0.000510670563229574,-0.999999865507214));
#1331=DIRECTION('',(0.707042608229079,-7.48461259322293E-5,0.707170944359762));
#1332=DIRECTION('',(0.999999805823035,-0.00061651896961407,9.0874922549945E-5));
#1333=DIRECTION('',(-0.000616518972159755,-0.99999980995216,0.));
#1334=DIRECTION('',(-0.000616565293844599,-0.999999679559917,0.000510614632055848));
#1335=DIRECTION('',(9.05600898231523E-5,-0.000510670563229574,-0.999999865507214));
#1336=DIRECTION('',(0.000616565293844413,0.999999679559917,-0.000510614632055848));
#1337=DIRECTION('',(0.999999809923552,-0.000616565374222132,0.));
#1338=DIRECTION('',(0.000616565293844413,0.999999679559917,-0.000510614632055848));
#1339=DIRECTION('',(0.999999809923552,-0.000616565374222132,0.));
#1340=DIRECTION('',(9.05600898231523E-5,-0.000510670563229574,-0.999999865507214));
#1341=DIRECTION('',(0.999999805823035,-0.00061651896961263,9.08749225499463E-5));
#1342=DIRECTION('',(-0.707042608229079,7.48461259321348E-5,-0.707170944359762));
#1343=DIRECTION('',(9.05600898231523E-5,-0.000510670563229574,-0.999999865507214));
#1344=DIRECTION('',(-0.999999805823035,0.00061651896961361,-9.08749225499448E-5));
#1345=DIRECTION('',(0.000616518972159294,0.99999980995216,0.));
#1346=DIRECTION('',(0.000616565293844138,0.999999679559917,-0.000510614632055848));
#1347=DIRECTION('',(0.000616518972159294,0.99999980995216,0.));
#1348=DIRECTION('',(0.,0.,1.));
#1349=DIRECTION('',(-1.,0.,0.));
#1350=DIRECTION('',(-9.05600898231523E-5,0.000510670563229574,0.999999865507214));
#1351=DIRECTION('',(0.,-0.999999869607778,0.000510670565323611));
#1352=DIRECTION('',(-9.05600898231523E-5,0.000510670563229574,0.999999865507214));
#1353=DIRECTION('',(0.,-0.999999869607778,0.000510670565323611));
#1354=DIRECTION('',(-9.05600898231523E-5,0.000510670563229574,0.999999865507214));
#1355=DIRECTION('',(0.,-0.999999869607778,0.000510670565323611));
#1356=DIRECTION('',(-9.05600898231523E-5,0.000510670563229574,0.999999865507214));
#1357=DIRECTION('',(0.,-0.999999869607778,0.000510670565323611));
#1358=DIRECTION('',(-9.05600898231523E-5,0.000510670563229574,0.999999865507214));
#1359=DIRECTION('',(0.,-0.999999869607778,0.000510670565323611));
#1360=DIRECTION('',(-9.05600898231523E-5,0.000510670563229574,0.999999865507214));
#1361=DIRECTION('',(0.,-0.999999869607778,0.000510670565323611));
#1362=DIRECTION('',(0.000616565293843515,0.999999679559917,-0.000510614632055885));
#1363=DIRECTION('',(-9.05600898231523E-5,0.000510670563229574,0.999999865507214));
#1364=DIRECTION('',(0.,-0.999999869607778,0.000510670565323611));
#1365=DIRECTION('',(0.999999805823035,-0.000616518969613659,9.08749225499211E-5));
#1366=DIRECTION('',(-9.05600898231523E-5,0.000510670563229574,0.999999865507214));
#1367=DIRECTION('',(0.,-0.999999869607778,0.000510670565323611));
#1368=DIRECTION('',(-0.000616565293843887,-0.999999679559917,0.000510614632055885));
#1369=DIRECTION('',(-9.05600898231523E-5,0.000510670563229574,0.999999865507214));
#1370=DIRECTION('',(0.,-0.999999869607778,0.000510670565323611));
#1371=DIRECTION('',(-0.999999805823035,0.000616518969613598,-9.08749225499211E-5));
#1372=DIRECTION('',(0.000616565293843433,0.999999679559917,-0.000510614632055834));
#1373=DIRECTION('',(-9.05600898231523E-5,0.000510670563229574,0.999999865507214));
#1374=DIRECTION('',(0.,-0.999999869607778,0.000510670565323611));
#1375=DIRECTION('',(-0.000616565293844598,-0.999999679559917,0.000510614632055848));
#1376=DIRECTION('',(-9.05600898231523E-5,0.000510670563229574,0.999999865507214));
#1377=DIRECTION('',(0.,-0.999999869607778,0.000510670565323611));
#1378=DIRECTION('',(0.000616565293843433,0.999999679559917,-0.000510614632055834));
#1379=DIRECTION('',(-9.05600898231523E-5,0.000510670563229574,0.999999865507214));
#1380=DIRECTION('',(0.,-0.999999869607778,0.000510670565323611));
#1381=DIRECTION('',(-0.999999805823035,0.000616518969614113,-9.08749225499624E-5));
#1382=DIRECTION('',(-9.05600898231523E-5,0.000510670563229574,0.999999865507214));
#1383=DIRECTION('',(0.,-0.999999869607778,0.000510670565323611));
#1384=DIRECTION('',(-0.000616565293843578,-0.999999679559917,0.000510614632055834));
#1385=DIRECTION('',(-9.05600898231523E-5,0.000510670563229574,0.999999865507214));
#1386=DIRECTION('',(0.,-0.999999869607778,0.000510670565323611));
#1387=DIRECTION('',(0.999999805823035,-0.000616518969614041,9.08749225499624E-5));
#1388=DIRECTION('',(-9.05600898231523E-5,0.000510670563229574,0.999999865507214));
#1389=DIRECTION('',(0.,-0.999999869607778,0.000510670565323611));
#1390=DIRECTION('',(-0.999999805823035,0.000616518969612905,-9.08749225499444E-5));
#1391=DIRECTION('',(0.00061651897215859,0.999999809952161,0.));
#1392=DIRECTION('',(-9.05600898231523E-5,0.000510670563229574,0.999999865507214));
#1393=DIRECTION('',(0.000616565293843433,0.999999679559917,-0.000510614632055834));
#1394=DIRECTION('',(9.05600898231523E-5,-0.000510670563229574,-0.999999865507214));
#1395=DIRECTION('',(-0.999999805823035,0.000616518969612905,-9.08749225499444E-5));
#1396=DIRECTION('',(0.00061651897215859,0.999999809952161,0.));
#1397=DIRECTION('',(0.000616565293843433,0.999999679559917,-0.000510614632055834));
#1398=DIRECTION('',(9.05600898231523E-5,-0.000510670563229574,-0.999999865507214));
#1399=DIRECTION('',(9.05600898231523E-5,-0.000510670563229574,-0.999999865507214));
#1400=DIRECTION('',(-0.000616565293844126,-0.999999679559917,0.000510614632055848));
#1401=DIRECTION('',(-0.999999809923552,0.000616565374221844,0.));
#1402=DIRECTION('',(9.05600898231523E-5,-0.000510670563229574,-0.999999865507214));
#1403=DIRECTION('',(-0.999999805823035,0.000616518969613598,-9.08749225499211E-5));
#1404=DIRECTION('',(9.05600898231523E-5,-0.000510670563229574,-0.999999865507214));
#1405=DIRECTION('',(-0.999999805823035,0.000616518969612987,-9.08749225499444E-5));
#1406=DIRECTION('',(0.000616518972158672,0.999999809952161,0.));
#1407=DIRECTION('',(9.05600898231523E-5,-0.000510670563229574,-0.999999865507214));
#1408=DIRECTION('',(0.000616565293843515,0.999999679559917,-0.000510614632055885));
#1409=DIRECTION('',(9.05600898231523E-5,-0.000510670563229574,-0.999999865507214));
#1410=DIRECTION('',(0.000616565293844187,0.999999679559917,-0.000510614632055848));
#1411=DIRECTION('',(0.999999809923552,-0.000616565374221906,0.));
#1412=DIRECTION('',(0.999999805823035,-0.000616518969613659,9.08749225499211E-5));
#1413=DIRECTION('',(9.05600898231523E-5,-0.000510670563229574,-0.999999865507214));
#1414=DIRECTION('',(9.05600898231523E-5,-0.000510670563229574,-0.999999865507214));
#1415=DIRECTION('',(-0.000616565293844642,-0.999999679559917,0.000510614632055848));
#1416=DIRECTION('',(-0.999999809923552,0.00061656537422236,0.));
#1417=DIRECTION('',(9.05600898231523E-5,-0.000510670563229574,-0.999999865507214));
#1418=DIRECTION('',(-0.999999805823035,0.000616518969614113,-9.08749225499624E-5));
#1419=DIRECTION('',(9.05600898231523E-5,-0.000510670563229574,-0.999999865507214));
#1420=DIRECTION('',(0.999999805823035,-0.00061651896961305,9.08749225499445E-5));
#1421=DIRECTION('',(-0.000616518972158734,-0.999999809952161,0.));
#1422=DIRECTION('',(-0.000616565293843578,-0.999999679559917,0.000510614632055834));
#1423=DIRECTION('',(9.05600898231523E-5,-0.000510670563229574,-0.999999865507214));
#1424=DIRECTION('',(9.05600898231523E-5,-0.000510670563229574,-0.999999865507214));
#1425=DIRECTION('',(0.000616565293844569,0.999999679559917,-0.000510614632055848));
#1426=DIRECTION('',(0.999999809923552,-0.000616565374222288,0.));
#1427=DIRECTION('',(9.05600898231523E-5,-0.000510670563229574,-0.999999865507214));
#1428=DIRECTION('',(0.999999805823035,-0.000616518969614041,9.08749225499624E-5));
#1429=DIRECTION('',(9.05600898231523E-5,-0.000510670563229574,-0.999999865507214));
#1430=DIRECTION('',(9.05600898231523E-5,-0.000510670563229574,-0.999999865507214));
#1431=DIRECTION('',(0.,0.999999869607778,-0.000510670565323611));
#1432=DIRECTION('',(-9.0560089822944E-5,0.000510670563225179,0.999999865507214));
#1433=DIRECTION('',(0.,-0.999999869607778,0.000510670565319216));
#1434=DIRECTION('',(-9.0560089822944E-5,0.000510670563232117,0.999999865507214));
#1435=DIRECTION('',(0.,-0.999999869607778,0.000510670565326155));
#1436=DIRECTION('',(9.05600898231523E-5,-0.000510670563229574,-0.999999865507214));
#1437=DIRECTION('',(0.,0.999999869607778,-0.000510670565323611));
#1438=DIRECTION('',(-9.0560089822944E-5,0.000510670563232117,0.999999865507214));
#1439=DIRECTION('',(0.,-0.999999869607778,0.000510670565326155));
#1440=DIRECTION('',(-9.05600898229453E-5,0.000510670563225186,0.999999865507214));
#1441=DIRECTION('',(0.,-0.999999869607778,0.000510670565319223));
#1442=DIRECTION('',(9.05600898231523E-5,-0.000510670563229574,-0.999999865507214));
#1443=DIRECTION('',(0.,0.999999869607778,-0.000510670565323611));
#1444=DIRECTION('',(-9.05600898298829E-5,0.000510670563232117,0.999999865507214));
#1445=DIRECTION('',(0.,-0.999999869607778,0.000510670565326155));
#1446=DIRECTION('',(-9.05600898160064E-5,0.000510670563225186,0.999999865507214));
#1447=DIRECTION('',(0.,-0.999999869607778,0.000510670565319223));
#1448=DIRECTION('',(9.05600898231523E-5,-0.000510670563229574,-0.999999865507214));
#1449=DIRECTION('',(0.,0.999999869607778,-0.000510670565323611));
#1450=DIRECTION('',(-9.05600898298829E-5,0.000510670563232117,0.999999865507214));
#1451=DIRECTION('',(0.,-0.999999869607778,0.000510670565326155));
#1452=DIRECTION('',(-9.05600898160051E-5,0.000510670563225179,0.999999865507214));
#1453=DIRECTION('',(0.,-0.999999869607778,0.000510670565319216));
#1454=DIRECTION('',(0.999999805823035,-0.000616518969613359,9.08749225499446E-5));
#1455=DIRECTION('',(-0.000616518972159044,-0.999999809952161,0.));
#1456=DIRECTION('',(-0.000616565293843887,-0.999999679559917,0.000510614632055885));
#1457=DIRECTION('',(9.05600898231523E-5,-0.000510670563229574,-0.999999865507214));
#1458=DIRECTION('',(9.05600898231523E-5,-0.000510670563229574,-0.999999865507214));
#1459=DIRECTION('',(-9.05600898231523E-5,0.000510670563229574,0.999999865507214));
#1460=DIRECTION('',(0.,-0.999999869607778,0.000510670565323611));
#1461=DIRECTION('',(-9.05600898231523E-5,0.000510670563229574,0.999999865507214));
#1462=DIRECTION('',(0.,-0.999999869607778,0.000510670565323611));
#1463=DIRECTION('',(-9.05600898231523E-5,0.000510670563229574,0.999999865507214));
#1464=DIRECTION('',(0.,-0.999999869607778,0.000510670565323611));
#1465=DIRECTION('',(-9.05600898231523E-5,0.000510670563229574,0.999999865507214));
#1466=DIRECTION('',(0.,-0.999999869607778,0.000510670565323611));
#1467=DIRECTION('',(-9.05600898231523E-5,0.000510670563229574,0.999999865507214));
#1468=DIRECTION('',(0.,-0.999999869607778,0.000510670565323611));
#1469=DIRECTION('',(-9.05600898231523E-5,0.000510670563229574,0.999999865507214));
#1470=DIRECTION('',(0.,-0.999999869607778,0.000510670565323611));
#1471=DIRECTION('',(-9.05600898231523E-5,0.000510670563229574,0.999999865507214));
#1472=DIRECTION('',(0.,-0.999999869607778,0.000510670565323611));
#1473=DIRECTION('',(-9.05600898231523E-5,0.000510670563229574,0.999999865507214));
#1474=DIRECTION('',(0.,-0.999999869607778,0.000510670565323611));
#1475=DIRECTION('',(-9.05600898231523E-5,0.000510670563229574,0.999999865507214));
#1476=DIRECTION('',(0.,-0.999999869607778,0.000510670565323611));
#1477=DIRECTION('',(-0.000616565293844138,-0.999999679559917,0.000510614632055848));
#1478=DIRECTION('',(-9.05600898231523E-5,0.000510670563229574,0.999999865507214));
#1479=DIRECTION('',(0.,-0.999999869607778,0.000510670565323611));
#1480=DIRECTION('',(-9.05600898231523E-5,0.000510670563229574,0.999999865507214));
#1481=DIRECTION('',(0.,-0.999999869607778,0.000510670565323611));
#1482=DIRECTION('',(-9.05600898231523E-5,0.000510670563229574,0.999999865507214));
#1483=DIRECTION('',(0.,-0.999999869607778,0.000510670565323611));
#1484=DIRECTION('',(-9.05600898231523E-5,0.000510670563229574,0.999999865507214));
#1485=DIRECTION('',(0.,-0.999999869607778,0.000510670565323611));
#1486=DIRECTION('',(-9.05600898231523E-5,0.000510670563229574,0.999999865507214));
#1487=DIRECTION('',(0.,-0.999999869607778,0.000510670565323611));
#1488=DIRECTION('',(-9.05600898231523E-5,0.000510670563229574,0.999999865507214));
#1489=DIRECTION('',(0.,-0.999999869607778,0.000510670565323611));
#1490=DIRECTION('',(9.05600898231523E-5,-0.000510670563229574,-0.999999865507214));
#1491=DIRECTION('',(0.,0.999999869607778,-0.000510670565323611));
#1492=DIRECTION('',(9.05600898231523E-5,-0.000510670563229574,-0.999999865507214));
#1493=DIRECTION('',(0.,0.999999869607778,-0.000510670565323611));
#1494=DIRECTION('',(9.05600898231523E-5,-0.000510670563229574,-0.999999865507214));
#1495=DIRECTION('',(0.,0.999999869607778,-0.000510670565323611));
#1496=DIRECTION('',(-9.05600898231523E-5,0.000510670563229574,0.999999865507214));
#1497=DIRECTION('',(0.,-0.999999869607778,0.000510670565323611));
#1498=DIRECTION('',(-9.05600898231523E-5,0.000510670563229574,0.999999865507214));
#1499=DIRECTION('',(0.,-0.999999869607778,0.000510670565323611));
#1500=DIRECTION('',(-9.05600898231523E-5,0.000510670563229574,0.999999865507214));
#1501=DIRECTION('',(0.,-0.999999869607778,0.000510670565323611));
#1502=DIRECTION('',(9.05600898231523E-5,-0.000510670563229574,-0.999999865507214));
#1503=DIRECTION('',(0.,0.999999869607778,-0.000510670565323611));
#1504=DIRECTION('',(-9.05600898231523E-5,0.000510670563229574,0.999999865507214));
#1505=DIRECTION('',(0.,-0.999999869607778,0.000510670565323611));
#1506=DIRECTION('',(-0.000616565293844599,-0.999999679559917,0.000510614632055848));
#1507=DIRECTION('',(-0.999999809923552,0.000616565374222317,0.));
#1508=DIRECTION('',(-0.707170679536319,0.000797043362355912,0.707042427811811));
#1509=DIRECTION('',(0.000616565293844138,0.999999679559917,-0.000510614632055848));
#1510=DIRECTION('',(-9.05600898298829E-5,0.000510670563232117,0.999999865507214));
#1511=DIRECTION('',(0.,-0.999999869607778,0.000510670565326155));
#1512=DIRECTION('',(9.05600898160051E-5,-0.000510670563225179,-0.999999865507214));
#1513=DIRECTION('',(0.,0.999999869607778,-0.000510670565319216));
#1514=DIRECTION('',(-9.05600898298829E-5,0.000510670563232117,0.999999865507214));
#1515=DIRECTION('',(0.,-0.999999869607778,0.000510670565326155));
#1516=DIRECTION('',(9.05600898160064E-5,-0.000510670563225186,-0.999999865507214));
#1517=DIRECTION('',(0.,0.999999869607778,-0.000510670565319223));
#1518=DIRECTION('',(-9.0560089822944E-5,0.000510670563232117,0.999999865507214));
#1519=DIRECTION('',(0.,-0.999999869607778,0.000510670565326155));
#1520=DIRECTION('',(9.05600898229453E-5,-0.000510670563225186,-0.999999865507214));
#1521=DIRECTION('',(0.,0.999999869607778,-0.000510670565319223));
#1522=DIRECTION('',(9.0560089822944E-5,-0.000510670563225179,-0.999999865507214));
#1523=DIRECTION('',(0.,0.999999869607778,-0.000510670565319216));
#1524=DIRECTION('',(-9.0560089822944E-5,0.000510670563232117,0.999999865507214));
#1525=DIRECTION('',(0.,-0.999999869607778,0.000510670565326155));
#1526=DIRECTION('',(9.05600898231523E-5,-0.000510670563229574,-0.999999865507214));
#1527=DIRECTION('',(0.,0.999999869607778,-0.000510670565323611));
#1528=DIRECTION('',(-9.05600898231523E-5,0.000510670563229574,0.999999865507214));
#1529=DIRECTION('',(0.,-0.999999869607778,0.000510670565323611));
#1530=DIRECTION('',(0.,0.,-1.));
#1531=DIRECTION('',(-1.,0.,0.));
#1532=DIRECTION('',(0.,0.,1.));
#1533=DIRECTION('',(1.,0.,0.));
#1534=DIRECTION('',(0.,1.,0.));
#1535=DIRECTION('',(-1.,0.,0.));
#1536=DIRECTION('',(0.,0.,1.));
#1537=DIRECTION('',(1.,0.,0.));
#1538=DIRECTION('',(-1.,0.,0.));
#1539=DIRECTION('',(0.,-1.,0.));
#1540=DIRECTION('',(0.,0.,1.));
#1541=DIRECTION('',(1.,0.,0.));
#1542=DIRECTION('',(0.,-1.,0.));
#1543=DIRECTION('',(1.,0.,0.));
#1544=DIRECTION('',(0.,0.,1.));
#1545=DIRECTION('',(1.,0.,0.));
#1546=DIRECTION('',(0.,0.,1.));
#1547=DIRECTION('',(-1.,0.,0.));
#1548=DIRECTION('',(0.,0.,1.));
#1549=DIRECTION('',(1.,0.,0.));
#1550=DIRECTION('',(1.,0.,0.));
#1551=DIRECTION('',(0.,1.,0.));
#1552=DIRECTION('',(0.,0.,1.));
#1553=DIRECTION('',(1.,0.,0.));
#1554=DIRECTION('',(-0.577350269189626,0.577350269189626,-0.577350269189626));
#1555=DIRECTION('',(-0.707106786194404,-0.707106776178691,1.00157125371148E-8));
#1556=DIRECTION('',(0.,0.,1.));
#1557=DIRECTION('',(1.,0.,0.));
#1558=DIRECTION('',(-0.718873086818576,0.585048618558824,-0.375419230954334));
#1559=DIRECTION('',(-0.631219064397705,-0.77560459819478,-3.83415546534316E-9));
#1560=DIRECTION('',(0.,0.,1.));
#1561=DIRECTION('',(1.,0.,0.));
#1562=CARTESIAN_POINT('',(0.,0.,0.));
#1563=CARTESIAN_POINT('',(35.5000000000081,-7.00000000960685,15.4919334218288));
#1564=CARTESIAN_POINT('',(35.5000000000081,-7.00000000960685,15.4919334218288));
#1565=CARTESIAN_POINT('',(35.5000000000081,-7.20588236254802,15.9475785213826));
#1566=CARTESIAN_POINT('',(35.5000000000081,-7.50000000960685,15.4919334218288));
#1567=CARTESIAN_POINT('',(35.5000000000081,-7.20588236254802,15.9475785213826));
#1568=CARTESIAN_POINT('',(29.0000000000081,-7.20588236254802,15.9475785213826));
#1569=CARTESIAN_POINT('',(29.0000000000081,-7.00000000960685,15.4919334218288));
#1570=CARTESIAN_POINT('',(29.0000000000081,-7.50000000960685,15.4919334218288));
#1571=CARTESIAN_POINT('',(35.5000000000081,-7.50000000960685,15.4919334218288));
#1572=CARTESIAN_POINT('',(35.5000000000081,6.99999999039316,15.4919334218288));
#1573=CARTESIAN_POINT('',(35.5000000000081,6.99999999039316,15.4919334218288));
#1574=CARTESIAN_POINT('',(35.5000000000081,7.49999999039316,15.4919334218288));
#1575=CARTESIAN_POINT('',(35.5000000000081,7.20588234333433,15.9475785213826));
#1576=CARTESIAN_POINT('',(35.5000000000081,7.49999999039316,15.4919334218288));
#1577=CARTESIAN_POINT('',(29.0000000000081,7.49999999039316,15.4919334218288));
#1578=CARTESIAN_POINT('',(29.0000000000081,6.99999999039316,15.4919334218288));
#1579=CARTESIAN_POINT('',(29.0000000000081,7.20588234333433,15.9475785213826));
#1580=CARTESIAN_POINT('',(35.5000000000081,7.20588234333433,15.9475785213826));
#1581=CARTESIAN_POINT('',(30.0000000000081,-9.60684309880833E-9,3.69991814963555E-8));
#1582=CARTESIAN_POINT('',(30.0000000000081,-9.60684309880833E-9,3.69991814963555E-8));
#1583=CARTESIAN_POINT('',(30.0000000000081,1.69999999039317,3.69991814963555E-8));
#1584=CARTESIAN_POINT('',(30.0000000000081,-9.60684309880833E-9,3.69991814963555E-8));
#1585=CARTESIAN_POINT('',(30.0000000000081,3.99999999039316,3.69991814963555E-8));
#1586=CARTESIAN_POINT('',(32.0000000000081,-9.60684309880833E-9,10.0000000369991));
#1587=CARTESIAN_POINT('',(32.0000000000081,-9.60684309880833E-9,3.69991814963555E-8));
#1588=CARTESIAN_POINT('',(32.0000000000081,-1.70000000960686,3.69991814963555E-8));
#1589=CARTESIAN_POINT('',(32.0000000000081,-9.60684309880833E-9,3.69991814963555E-8));
#1590=CARTESIAN_POINT('',(32.0000000000081,-3.25000000960685,3.69991814963555E-8));
#1591=CARTESIAN_POINT('',(32.0000000000081,-9.60684309880833E-9,10.0000000369991));
#1592=CARTESIAN_POINT('',(32.0000000000081,-9.60684309880833E-9,-9.99999996300083));
#1593=CARTESIAN_POINT('',(32.0000000000081,-1.70000000960685,-9.99999996300083));
#1594=CARTESIAN_POINT('',(32.0000000000081,-9.60684309880833E-9,-9.99999996300083));
#1595=CARTESIAN_POINT('',(32.0000000000081,-3.25000000960685,-9.99999996300083));
#1596=CARTESIAN_POINT('',(32.0000000000081,-9.60684309880833E-9,10.0000000369991));
#1597=CARTESIAN_POINT('',(32.0000000000081,-9.60684309880833E-9,10.0000000369991));
#1598=CARTESIAN_POINT('',(32.0000000000081,-1.70000000960686,10.0000000369991));
#1599=CARTESIAN_POINT('',(32.0000000000081,-9.60684309880833E-9,10.0000000369991));
#1600=CARTESIAN_POINT('',(32.0000000000081,-3.25000000960685,10.0000000369991));
#1601=CARTESIAN_POINT('',(35.5000000000081,-9.60684309880833E-9,3.69991814963555E-8));
#1602=CARTESIAN_POINT('',(35.5000000000081,-9.60684309880833E-9,-32.9999999630008));
#1603=CARTESIAN_POINT('',(35.5000000017659,7.499999990392,-32.9999999630008));
#1604=CARTESIAN_POINT('',(35.5000000000081,-7.50000000960685,-32.9999999630008));
#1605=CARTESIAN_POINT('',(35.5000000000081,7.49999999039316,-41.5047173640173));
#1606=CARTESIAN_POINT('',(35.5000000000081,-9.60684309880833E-9,3.69991814963555E-8));
#1607=CARTESIAN_POINT('',(35.5000000000081,-7.50000000960685,15.811388337841));
#1608=CARTESIAN_POINT('',(35.5000000000081,-9.60684309880833E-9,10.0000000369991));
#1609=CARTESIAN_POINT('',(35.5000000000081,-3.25000000960685,10.0000000369991));
#1610=CARTESIAN_POINT('',(35.5000000000081,-9.60684309880833E-9,3.69991814963555E-8));
#1611=CARTESIAN_POINT('',(35.5000000000081,-3.25000000960685,3.69991814963555E-8));
#1612=CARTESIAN_POINT('',(35.5000000000081,-9.60684309880833E-9,-9.99999996300083));
#1613=CARTESIAN_POINT('',(35.5000000000081,-3.25000000960685,-9.99999996300083));
#1614=CARTESIAN_POINT('',(35.5000000000081,7.49999999039316,-41.5047173640173));
#1615=CARTESIAN_POINT('',(35.5000000000081,7.49999999039316,-32.9999999630008));
#1616=CARTESIAN_POINT('',(29.0000000000081,7.49999999039316,-32.9999999630008));
#1617=CARTESIAN_POINT('',(29.0000000000081,7.49999999039316,-41.5047173640173));
#1618=CARTESIAN_POINT('',(35.5000000000081,-7.50000000960685,15.811388337841));
#1619=CARTESIAN_POINT('',(29.0000000000081,-7.50000000960685,15.811388337841));
#1620=CARTESIAN_POINT('',(29.0000000000081,-7.50000000960685,-32.9999999630008));
#1621=CARTESIAN_POINT('',(35.5000000000081,-7.50000000960685,-32.9999999630008));
#1622=CARTESIAN_POINT('',(35.5000000000081,-9.60684309880833E-9,3.69991814963555E-8));
#1623=CARTESIAN_POINT('',(29.0000000000081,-9.60684309880833E-9,3.69991814963555E-8));
#1624=CARTESIAN_POINT('',(29.0000000000081,-9.60684309880833E-9,3.69991814963555E-8));
#1625=CARTESIAN_POINT('',(29.0000000000081,-9.60684309880833E-9,-32.9999999630008));
#1626=CARTESIAN_POINT('',(29.0000000000081,-7.49599233391268,-32.9999999630008));
#1627=CARTESIAN_POINT('',(29.0000000000081,-9.60684309880833E-9,-32.9999999630008));
#1628=CARTESIAN_POINT('',(29.0000000000081,-9.60684309880833E-9,-9.99999996300083));
#1629=CARTESIAN_POINT('',(29.0000000000081,-1.70000000960685,-9.99999996300083));
#1630=CARTESIAN_POINT('',(29.0000000000081,-9.60684309880833E-9,10.0000000369991));
#1631=CARTESIAN_POINT('',(29.0000000000081,-1.70000000960686,10.0000000369991));
#1632=CARTESIAN_POINT('',(29.0000000000081,-9.60684309880833E-9,3.69991814963555E-8));
#1633=CARTESIAN_POINT('',(29.0000000000081,3.99999999039316,3.69991814963555E-8));
#1634=CARTESIAN_POINT('',(29.0000000000081,-9.60684309880833E-9,3.69991814963555E-8));
#1635=CARTESIAN_POINT('',(29.0000000000081,-9.60684309880833E-9,-9.99999996300083));
#1636=CARTESIAN_POINT('',(29.0000000000081,-9.60684309880833E-9,10.0000000369991));
#1637=CARTESIAN_POINT('',(32.0000000000081,-9.60684309880833E-9,10.0000000369991));
#1638=CARTESIAN_POINT('',(32.0000000000081,-9.60684309880833E-9,-9.99999996300083));
#1639=CARTESIAN_POINT('',(32.0000000000081,-9.60684309880833E-9,3.69991814963555E-8));
#1640=CARTESIAN_POINT('',(30.0000000000081,-9.60684309880833E-9,3.69991814963555E-8));
#1641=CARTESIAN_POINT('',(29.0000000000081,-9.60684309880833E-9,-32.9999999630008));
#1642=CARTESIAN_POINT('',(28.9753089795562,-7.49597711028152,-32.9999999630008));
#1643=CARTESIAN_POINT('',(29.0000000000081,-9.60684309880833E-9,-32.9999999630008));
#1644=CARTESIAN_POINT('',(35.5023719522791,7.49999852792915,-32.9999999630008));
#1645=CARTESIAN_POINT('',(28.9914332351395,7.50401294805889,-32.9999999630008));
#1646=CARTESIAN_POINT('',(28.9914570538058,7.54264705813412,-32.9999999630008));
#1647=CARTESIAN_POINT('',(28.9821854523149,-7.49598135007731,-32.9999999630008));
#1648=CARTESIAN_POINT('',(28.9753089795562,-7.49597711028152,-32.9999999630008));
#1649=CARTESIAN_POINT('',(35.5023957729245,7.53863294012436,42.6625683943049));
#1650=CARTESIAN_POINT('',(35.510470412654,7.4930998490399,-46.5007557508101));
#1651=CARTESIAN_POINT('',(33.5104708010079,7.49433288697912,-46.5009375006552));
#1652=CARTESIAN_POINT('',(25.001996715445,7.49957852367389,-46.5017107077289));
#1653=CARTESIAN_POINT('',(25.0015439149959,7.50213187649004,-41.5017113801928));
#1654=CARTESIAN_POINT('',(25.0015439140084,7.50213188205867,-41.5017004756782));
#1655=CARTESIAN_POINT('',(24.9918416544995,7.50418031704367,-37.5017127669378));
#1656=CARTESIAN_POINT('',(28.9918408777916,7.50171424116522,-37.5013492672475));
#1657=CARTESIAN_POINT('',(28.9845812788705,7.54265129718062,42.6619760883026));
#1658=CARTESIAN_POINT('',(35.5023719522791,7.49999852792915,-32.9999999630008));
#1659=CARTESIAN_POINT('',(35.5092477828327,7.49999428852932,-32.9999999630008));
#1660=CARTESIAN_POINT('',(35.5023957729245,7.53863294012436,42.6625683943049));
#1661=CARTESIAN_POINT('',(35.5102892924743,7.49412119016635,-44.5007560197956));
#1662=CARTESIAN_POINT('',(35.5102892924743,7.49412119016632,-44.5007560197956));
#1663=CARTESIAN_POINT('',(28.9845812788705,7.54265129718062,42.6619760883026));
#1664=CARTESIAN_POINT('',(28.9918408777916,7.50171424116522,-37.5013492672475));
#1665=CARTESIAN_POINT('',(28.9825924013475,-7.49827614563378,-37.493690050221));
#1666=CARTESIAN_POINT('',(28.9753328024264,-7.45733908961835,42.6696353053291));
#1667=CARTESIAN_POINT('',(28.9753328024264,-7.45733908961838,42.6696353053291));
#1668=CARTESIAN_POINT('',(24.9825931780554,-7.49581006975533,-37.4940535499112));
#1669=CARTESIAN_POINT('',(24.9922954375644,-7.49785850474033,-41.4940412586517));
#1670=CARTESIAN_POINT('',(24.992748239001,-7.50041186312508,-46.4940514907023));
#1671=CARTESIAN_POINT('',(24.992748239001,-7.50041186312506,-46.4940514907023));
#1672=CARTESIAN_POINT('',(10.9927509574786,-7.49178059755048,-46.4953237396181));
#1673=CARTESIAN_POINT('',(33.5012223245638,-7.50565749981985,-46.4932782836287));
#1674=CARTESIAN_POINT('',(35.5010408160302,-7.50586919663265,-44.4930968027691));
#1675=CARTESIAN_POINT('',(35.5010408160302,-7.50586919663265,-44.4930968027691));
#1676=CARTESIAN_POINT('',(35.4931472964804,-7.46135744667464,42.6702276113314));
#1677=CARTESIAN_POINT('',(35.4931472964804,-7.46135744667464,42.6702276113314));
#1678=CARTESIAN_POINT('',(35.5010408160302,-7.50586919663265,-44.4930968027691));
#1679=CARTESIAN_POINT('',(35.5000238212721,-7.46136168618344,-32.9999999630008));
#1680=CARTESIAN_POINT('',(29.0000000000081,-9.60684309880833E-9,-32.9999999630008));
#1681=CARTESIAN_POINT('',(-20.691718580604,-17.8979664350999,-41.4928782824499));
#1682=CARTESIAN_POINT('',(-20.691718580604,-17.8979664350999,-41.4928782824499));
#1683=CARTESIAN_POINT('',(-20.691718580604,-21.4229659754673,-41.4910781687071));
#1684=CARTESIAN_POINT('',(-20.6699960102863,17.4574376934666,-41.5109312818195));
#1685=CARTESIAN_POINT('',(-20.6699960102863,13.9324381530991,-41.5091311680767));
#1686=CARTESIAN_POINT('',(14.6853361838486,17.4356404562595,-41.5077183681208));
#1687=CARTESIAN_POINT('',(14.6853361838486,13.9106409158921,-41.505918254378));
#1688=CARTESIAN_POINT('',(14.6634609099826,-17.9197635781627,-41.489665382628));
#1689=CARTESIAN_POINT('',(14.6634609099826,-21.4447631185302,-41.4878652688853));
#1690=CARTESIAN_POINT('',(5.00170152405664,7.76378779135628,-41.5036561879512));
#1691=CARTESIAN_POINT('',(5.00540091581972,13.7637858687158,-41.5067198757435));
#1692=CARTESIAN_POINT('',(11.0017003589949,7.76008867753861,-41.5031109384159));
#1693=CARTESIAN_POINT('',(10.9881359225303,-14.2399042727796,-41.4918774165106));
#1694=CARTESIAN_POINT('',(10.9918353142934,-8.23990619542006,-41.494941104303));
#1695=CARTESIAN_POINT('',(4.99183647935515,-8.23620708160239,-41.4954863538383));
#1696=CARTESIAN_POINT('',(4.98813708759208,-14.2362051589619,-41.4924226660459));
#1697=CARTESIAN_POINT('',(-17.0118586405147,-14.2226417416304,-41.494421914342));
#1698=CARTESIAN_POINT('',(-11.0118598055765,-14.2263408554481,-41.4938766648067));
#1699=CARTESIAN_POINT('',(-11.0081604138134,-8.22634277808856,-41.4969403525991));
#1700=CARTESIAN_POINT('',(-17.0081592487516,-8.22264366427089,-41.4974856021344));
#1701=CARTESIAN_POINT('',(-16.9945948122871,13.7773492860473,-41.5087191240396));
#1702=CARTESIAN_POINT('',(-16.9982942040501,7.77735120868778,-41.5056554362473));
#1703=CARTESIAN_POINT('',(-10.9982953691119,7.7736520948701,-41.505110186712));
#1704=CARTESIAN_POINT('',(-10.9945959773488,13.7736501722296,-41.5081738745043));
#1705=CARTESIAN_POINT('',(11.0053997507579,13.7600867548981,-41.5061746262082));
#1706=CARTESIAN_POINT('',(20.9819683278221,-24.2460662580747,-41.4858625209646));
#1707=CARTESIAN_POINT('',(20.9856677195852,-18.2460681807152,-41.4889262087569));
#1708=CARTESIAN_POINT('',(20.9898299540844,-11.4953911526701,-41.4923732043283));
#1709=CARTESIAN_POINT('',(24.9898291773765,-11.4978572285486,-41.4920097046381));
#1710=CARTESIAN_POINT('',(24.9829554116913,-7.49786365652086,-41.494053006372));
#1711=CARTESIAN_POINT('',(24.9765257075971,-17.9261217794797,-41.4887281834813));
#1712=CARTESIAN_POINT('',(24.9922039015821,7.50214853930339,-41.5017122345346));
#1713=CARTESIAN_POINT('',(25.0040101761713,11.5021305947297,-41.503753838721));
#1714=CARTESIAN_POINT('',(21.0040109528792,11.5045966706082,-41.5041173384112));
#1715=CARTESIAN_POINT('',(20.9819683278221,-24.2460662580747,-41.4858625209646));
#1716=CARTESIAN_POINT('',(21.0078640701635,17.7539202834417,-41.5073083355109));
#1717=CARTESIAN_POINT('',(15.0078652352253,17.7576193972594,-41.5078535850462));
#1718=CARTESIAN_POINT('',(15.0115646269884,23.7576174746189,-41.5109172728386));
#1719=CARTESIAN_POINT('',(21.0115634619266,23.7539183608012,-41.5103720233033));
#1720=CARTESIAN_POINT('',(-20.9884283826409,23.779812157525,-41.5141887700504));
#1721=CARTESIAN_POINT('',(-20.992127774404,17.7798140801655,-41.511125082258));
#1722=CARTESIAN_POINT('',(-26.9921266093422,17.7835131939832,-41.5116703317933));
#1723=CARTESIAN_POINT('',(-26.9884272175791,23.7835112713427,-41.5147340195857));
#1724=CARTESIAN_POINT('',(-27.0143229599205,-18.2164752701738,-41.4932882050393));
#1725=CARTESIAN_POINT('',(-21.0143241249823,-18.2201743839915,-41.492742955504));
#1726=CARTESIAN_POINT('',(-21.0180235167454,-24.2201724613509,-41.4896792677117));
#1727=CARTESIAN_POINT('',(-27.0180223516836,-24.2164733475333,-41.490224517247));
#1728=CARTESIAN_POINT('',(14.9819694928839,-24.2423671442571,-41.4864077704999));
#1729=CARTESIAN_POINT('',(14.9856688846469,-18.2423690668976,-41.4894714582922));
#1730=CARTESIAN_POINT('',(20.9819683278221,-24.2460662580747,-41.4858625209646));
#1731=CARTESIAN_POINT('',(21.0044637533283,11.502043317792,-46.5041166659473));
#1732=CARTESIAN_POINT('',(21.0044637533283,11.502043317792,-46.5041166659473));
#1733=CARTESIAN_POINT('',(20.9824211282712,-24.2486196108909,-46.4858618485006));
#1734=CARTESIAN_POINT('',(21.0083168706126,17.7513669306256,-46.507307663047));
#1735=CARTESIAN_POINT('',(21.0078640701635,17.7539202834417,-41.5073083355109));
#1736=CARTESIAN_POINT('',(20.9819683278221,-24.2460662580747,-41.4858625209646));
#1737=CARTESIAN_POINT('',(20.9824211282712,-24.2486196108909,-46.4858618485006));
#1738=CARTESIAN_POINT('',(20.9861205200343,-18.2486215335314,-46.488925536293));
#1739=CARTESIAN_POINT('',(20.9902827545335,-11.4979445054863,-46.4923725318643));
#1740=CARTESIAN_POINT('',(20.9898299540844,-11.4953911526701,-41.4923732043283));
#1741=CARTESIAN_POINT('',(20.9856677195852,-18.2460681807152,-41.4889262087569));
#1742=CARTESIAN_POINT('',(11.0053997507579,13.7600867548981,-41.5061746262082));
#1743=CARTESIAN_POINT('',(-10.9941431768997,13.7710968194135,-46.5081732020404));
#1744=CARTESIAN_POINT('',(-10.9941431768997,13.7710968194135,-46.5081732020404));
#1745=CARTESIAN_POINT('',(11.005852551207,13.7575334020819,-46.5061739537443));
#1746=CARTESIAN_POINT('',(5.00585371626883,13.7612325158996,-46.5067192032796));
#1747=CARTESIAN_POINT('',(5.00540091581972,13.7637858687158,-41.5067198757435));
#1748=CARTESIAN_POINT('',(10.9881359225303,-14.2399042727796,-41.4918774165106));
#1749=CARTESIAN_POINT('',(11.002153159444,7.75753532472245,-46.5031102659519));
#1750=CARTESIAN_POINT('',(11.002153159444,7.75753532472245,-46.5031102659519));
#1751=CARTESIAN_POINT('',(10.9885887229794,-14.2424576255957,-46.4918767440467));
#1752=CARTESIAN_POINT('',(10.9922881147425,-8.24245954823621,-46.494940431839));
#1753=CARTESIAN_POINT('',(10.9918353142934,-8.23990619542006,-41.494941104303));
#1754=CARTESIAN_POINT('',(-17.0118586405147,-14.2226417416304,-41.494421914342));
#1755=CARTESIAN_POINT('',(-17.0114058400656,-14.2251950944465,-46.4944212418781));
#1756=CARTESIAN_POINT('',(-11.0114070051274,-14.2288942082642,-46.4938759923428));
#1757=CARTESIAN_POINT('',(4.9885898880412,-14.238758511778,-46.492421993582));
#1758=CARTESIAN_POINT('',(-11.0118598055765,-14.2263408554481,-41.4938766648067));
#1759=CARTESIAN_POINT('',(4.9885898880412,-14.238758511778,-46.492421993582));
#1760=CARTESIAN_POINT('',(21.0115634619266,23.7539183608012,-41.5103720233033));
#1761=CARTESIAN_POINT('',(15.0115646269884,23.7576174746189,-41.5109172728386));
#1762=CARTESIAN_POINT('',(15.0120174274375,23.7550641218028,-46.5109166003746));
#1763=CARTESIAN_POINT('',(21.0120162623757,23.7513650079851,-46.5103713508393));
#1764=CARTESIAN_POINT('',(-20.9879755821918,23.7772588047089,-46.5141880975864));
#1765=CARTESIAN_POINT('',(-20.9884283826409,23.779812157525,-41.5141887700504));
#1766=CARTESIAN_POINT('',(-26.9884272175791,23.7835112713427,-41.5147340195857));
#1767=CARTESIAN_POINT('',(-26.98797441713,23.7809579185266,-46.5147333471217));
#1768=CARTESIAN_POINT('',(-26.9916738088931,17.780959841167,-46.5116696593294));
#1769=CARTESIAN_POINT('',(-27.0138701594714,-18.2190286229899,-46.4932875325754));
#1770=CARTESIAN_POINT('',(-27.0143229599205,-18.2164752701738,-41.4932882050393));
#1771=CARTESIAN_POINT('',(-26.9921266093422,17.7835131939832,-41.5116703317933));
#1772=CARTESIAN_POINT('',(-27.0180223516836,-24.2164733475333,-41.490224517247));
#1773=CARTESIAN_POINT('',(-21.0180235167454,-24.2201724613509,-41.4896792677117));
#1774=CARTESIAN_POINT('',(-21.0175707162963,-24.2227258141671,-46.4896785952477));
#1775=CARTESIAN_POINT('',(-27.0175695512345,-24.2190267003494,-46.490223844783));
#1776=CARTESIAN_POINT('',(14.982422293333,-24.2449204970732,-46.4864070980359));
#1777=CARTESIAN_POINT('',(14.9819694928839,-24.2423671442571,-41.4864077704999));
#1778=CARTESIAN_POINT('',(14.6634609099826,-17.9197635781627,-41.489665382628));
#1779=CARTESIAN_POINT('',(14.6638684303868,-17.9220615956973,-45.9896647774105));
#1780=CARTESIAN_POINT('',(14.6638684303868,-20.9470612012608,-45.9881199989504));
#1781=CARTESIAN_POINT('',(14.6635061900275,-17.9200189134444,-41.9896653153817));
#1782=CARTESIAN_POINT('',(14.6635061900275,-20.9450185190079,-41.9881205369216));
#1783=CARTESIAN_POINT('',(14.6853361838486,17.4356404562595,-41.5077183681208));
#1784=CARTESIAN_POINT('',(14.6853814638935,17.4353851209779,-42.0077183008744));
#1785=CARTESIAN_POINT('',(14.6853814638935,14.4103855154144,-42.0061735224142));
#1786=CARTESIAN_POINT('',(14.6857437042528,17.433342438725,-46.0077177629032));
#1787=CARTESIAN_POINT('',(14.6857437042528,14.4083428331615,-46.0061729844431));
#1788=CARTESIAN_POINT('',(-20.6699960102863,17.4574376934666,-41.5109312818195));
#1789=CARTESIAN_POINT('',(-20.6699507302414,17.4571823581849,-42.0109312145731));
#1790=CARTESIAN_POINT('',(-20.6699507302414,14.4321827526214,-42.009386436113));
#1791=CARTESIAN_POINT('',(-20.6695884898821,17.455139675932,-46.0109306766019));
#1792=CARTESIAN_POINT('',(-20.6695884898821,14.4301400703685,-46.0093858981419));
#1793=CARTESIAN_POINT('',(-20.691718580604,-17.8979664350999,-41.4928782824499));
#1794=CARTESIAN_POINT('',(-20.6916733005591,-17.8982217703815,-41.9928782152035));
#1795=CARTESIAN_POINT('',(-20.6916733005591,-20.9232213759451,-41.9913334367434));
#1796=CARTESIAN_POINT('',(-20.6913110601998,-17.9002644526345,-45.9928776772323));
#1797=CARTESIAN_POINT('',(-20.6913110601998,-20.925264058198,-45.9913328987723));
#1798=CARTESIAN_POINT('',(-16.9945948122871,13.7773492860473,-41.5087191240396));
#1799=CARTESIAN_POINT('',(-16.9941420118379,13.7747959332311,-46.5087184515757));
#1800=CARTESIAN_POINT('',(-16.997841403601,7.77479785587162,-46.5056547637833));
#1801=CARTESIAN_POINT('',(-17.0077064483025,-8.22519701708704,-46.4974849296704));
#1802=CARTESIAN_POINT('',(-16.9982942040501,7.77735120868778,-41.5056554362473));
#1803=CARTESIAN_POINT('',(-17.0077064483025,-8.22519701708704,-46.4974849296705));
#1804=CARTESIAN_POINT('',(-20.6912657801549,-17.9005197879161,-46.4928776099859));
#1805=CARTESIAN_POINT('',(-20.6912657801549,-17.9005197879161,-46.4928776099859));
#1806=CARTESIAN_POINT('',(-20.6912657801549,-21.4255193282835,-46.4910774962432));
#1807=CARTESIAN_POINT('',(-20.6695432098372,17.4548843406504,-46.5109306093556));
#1808=CARTESIAN_POINT('',(-20.6695432098372,13.929884800283,-46.5091304956128));
#1809=CARTESIAN_POINT('',(14.6857889842977,17.4330871034434,-46.5077176956568));
#1810=CARTESIAN_POINT('',(14.6857889842977,13.908087563076,-46.505917581914));
#1811=CARTESIAN_POINT('',(14.6639137104317,-17.9223169309789,-46.4896647101641));
#1812=CARTESIAN_POINT('',(14.6639137104317,-21.4473164713463,-46.4878645964214));
#1813=CARTESIAN_POINT('',(5.00215432450576,7.76123443854013,-46.5036555154872));
#1814=CARTESIAN_POINT('',(-10.9978425686628,7.77109874205395,-46.505109514248));
#1815=CARTESIAN_POINT('',(-11.0077076133643,-8.22889613090472,-46.4969396801351));
#1816=CARTESIAN_POINT('',(4.99228927980426,-8.23876043441854,-46.4954856813743));
#1817=CARTESIAN_POINT('',(33.4947926137463,-17.9339265272913,-46.48795345517));
#1818=CARTESIAN_POINT('',(24.9902819778256,-11.5004105813648,-46.4920090321742));
#1819=CARTESIAN_POINT('',(14.9861216850961,-18.2449224197137,-46.4894707858283));
#1820=CARTESIAN_POINT('',(-21.0138713245332,-18.2227277368076,-46.4927422830401));
#1821=CARTESIAN_POINT('',(-20.9916749739549,17.7772607273494,-46.5111244097941));
#1822=CARTESIAN_POINT('',(15.0083180356744,17.7550660444432,-46.5078529125823));
#1823=CARTESIAN_POINT('',(25.0044629766204,11.4995772419136,-46.5037531662571));
#1824=CARTESIAN_POINT('',(15.0078652352253,17.7576193972594,-41.5078535850462));
#1825=CARTESIAN_POINT('',(-21.0143241249823,-18.2201743839915,-41.492742955504));
#1826=CARTESIAN_POINT('',(-20.992127774404,17.7798140801655,-41.511125082258));
#1827=CARTESIAN_POINT('',(-10.9982953691119,7.7736520948701,-41.505110186712));
#1828=CARTESIAN_POINT('',(-11.0081604138134,-8.22634277808856,-41.4969403525991));
#1829=CARTESIAN_POINT('',(4.99183647935515,-8.23620708160239,-41.4954863538383));
#1830=CARTESIAN_POINT('',(14.9856688846469,-18.2423690668976,-41.4894714582922));
#1831=CARTESIAN_POINT('',(5.00170152405664,7.76378779135628,-41.5036561879512));
#1832=CARTESIAN_POINT('',(24.9918416544995,7.50418031704367,-37.5017127669378));
#1833=CARTESIAN_POINT('',(25.0015439140084,7.50213188205867,-41.5017004756782));
#1834=CARTESIAN_POINT('',(24.998430574621,7.50213379777983,-41.5017080282891));
#1835=CARTESIAN_POINT('',(24.9953172371456,7.50213935018483,-41.501711947898));
#1836=CARTESIAN_POINT('',(24.9922039015821,7.50214853930339,-41.5017122345346));
#1837=CARTESIAN_POINT('',(24.9829554116913,-7.49786365652086,-41.494053006372));
#1838=CARTESIAN_POINT('',(24.9860687562193,-7.49785830626944,-41.4940527271595));
#1839=CARTESIAN_POINT('',(24.989182098177,-7.49785658901917,-41.4940488112626));
#1840=CARTESIAN_POINT('',(24.9922954375644,-7.49785850474033,-41.4940412586517));
#1841=CARTESIAN_POINT('',(35.5010408160302,-7.50586919663265,-44.4930968027691));
#1842=CARTESIAN_POINT('',(-20.6916733005591,-17.8982217703815,-41.9928782152035));
#1843=CARTESIAN_POINT('',(-20.6912657801549,-17.9005197879161,-46.4928776099859));
#1844=CARTESIAN_POINT('',(-20.6699507302414,17.4571823581849,-42.0109312145731));
#1845=CARTESIAN_POINT('',(-20.6695432098372,17.4548843406504,-46.5109306093556));
#1846=CARTESIAN_POINT('',(14.6853814638935,17.4353851209779,-42.0077183008744));
#1847=CARTESIAN_POINT('',(14.6857889842977,17.4330871034434,-46.5077176956568));
#1848=CARTESIAN_POINT('',(14.6639137104317,-17.9223169309789,-46.4896647101641));
#1849=CARTESIAN_POINT('',(14.6635061900275,-17.9200189134444,-41.9896653153817));
#1850=CARTESIAN_POINT('',(24.9963883368909,11.545110332998,42.659570978858));
#1851=CARTESIAN_POINT('',(24.9822073380961,-11.4548774902803,42.6713151129409));
#1852=CARTESIAN_POINT('',(-152.732559204102,246.492889404297,12.0839405059814));
#1853=CARTESIAN_POINT('',(0.,0.,0.));
#1854=CARTESIAN_POINT('',(-25.639883144981,-25.639883144981,102.835954666138));
#1855=CARTESIAN_POINT('',(-152.732559204102,146.049987792969,-90.7520141601562));
#1856=CARTESIAN_POINT('',(0.,0.,0.));
#1857=CARTESIAN_POINT('',(-25.0432280073469,-25.0432280073469,100.442901611328));
#1858=CARTESIAN_POINT('',(-52.2896537780762,246.492889404297,-90.7520141601562));
#1859=CARTESIAN_POINT('',(0.,0.,0.));
#1860=CARTESIAN_POINT('',(-25.0432289584577,-25.0432289584577,100.442905426025));
#1861=CARTESIAN_POINT('',(-152.732559204102,346.935791015625,-90.7520141601562));
#1862=CARTESIAN_POINT('',(0.,0.,0.));
#1863=CARTESIAN_POINT('',(-25.0432280073469,-25.0432280073469,100.442901611328));
#1864=CARTESIAN_POINT('',(-152.732559204102,246.492889404297,-193.587966918945));
#1865=CARTESIAN_POINT('',(0.,0.,0.));
#1866=CARTESIAN_POINT('',(-25.6398826694256,-25.6398826694256,102.835952758789));
#1867=CARTESIAN_POINT('',(-253.17546081543,246.492889404297,-90.7520141601562));
#1868=CARTESIAN_POINT('',(0.,0.,0.));
#1869=CARTESIAN_POINT('',(-25.0432280073469,-25.0432280073469,100.442901611328));
#1870=CARTESIAN_POINT('',(-62.9603393475214,156.720669547717,-0.979794303576129));
#1871=CARTESIAN_POINT('',(0.,0.,0.));
#1872=CARTESIAN_POINT('',(-38.7680225269734,-38.7680225269734,155.49004589984));
#1873=CARTESIAN_POINT('',(-52.1410855567755,164.627392176388,-38.2198295928227));
#1874=CARTESIAN_POINT('',(0.,0.,0.));
#1875=CARTESIAN_POINT('',(-34.8883156653971,-34.8883156653971,139.929391559922));
#1876=MECHANICAL_DESIGN_GEOMETRIC_PRESENTATION_REPRESENTATION('',(#1077),
#1877);
#1877=(
GEOMETRIC_REPRESENTATION_CONTEXT(3)
GLOBAL_UNCERTAINTY_ASSIGNED_CONTEXT((#1878))
GLOBAL_UNIT_ASSIGNED_CONTEXT((#1881,#1880,#1879))
REPRESENTATION_CONTEXT('openarm_wuji_mount','TOP_LEVEL_ASSEMBLY_PART')
);
#1878=UNCERTAINTY_MEASURE_WITH_UNIT(LENGTH_MEASURE(0.0508),#1881,
'DISTANCE_ACCURACY_VALUE','Maximum Tolerance applied to model');
#1879=(
NAMED_UNIT(*)
SI_UNIT($,.STERADIAN.)
SOLID_ANGLE_UNIT()
);
#1880=(
NAMED_UNIT(*)
PLANE_ANGLE_UNIT()
SI_UNIT($,.RADIAN.)
);
#1881=(
LENGTH_UNIT()
NAMED_UNIT(*)
SI_UNIT(.MILLI.,.METRE.)
);
#1882=PRODUCT_DEFINITION_SHAPE('','',#1883);
#1883=PRODUCT_DEFINITION('','',#1885,#1884);
#1884=PRODUCT_DEFINITION_CONTEXT('',#1891,'design');
#1885=PRODUCT_DEFINITION_FORMATION_WITH_SPECIFIED_SOURCE('','',#1887,
 .NOT_KNOWN.);
#1886=PRODUCT_RELATED_PRODUCT_CATEGORY('','',(#1887));
#1887=PRODUCT('openarm_wuji_mount','openarm_wuji_mount',
'openarm_wuji_mount',(#1889));
#1888=PRODUCT_CATEGORY('','');
#1889=PRODUCT_CONTEXT('',#1891,'mechanical');
#1890=APPLICATION_PROTOCOL_DEFINITION('international standard',
'ap242_managed_model_based_3d_engineering',2011,#1891);
#1891=APPLICATION_CONTEXT('managed model based 3d engineering');
ENDSEC;
END-ISO-10303-21;
